<mxfile host="app.diagrams.net" agent="Mozilla/5.0 (Windows NT 10.0; Win64; x64) AppleWebKit/537.36 (KHTML, like Gecko) Chrome/140.0.0.0 Safari/537.36 Edg/140.0.0.0" version="28.2.4">
  <diagram name="Page-1" id="buQz-7fn1pLDkZ04fKHg">
    <mxGraphModel dx="822" dy="876" grid="1" gridSize="10" guides="1" tooltips="1" connect="1" arrows="1" fold="1" page="0" pageScale="1" pageWidth="850" pageHeight="1100" math="0" shadow="0">
      <root>
        <mxCell id="0" />
        <mxCell id="1" parent="0" />
        <mxCell id="ik0_iE2QhQX5W9CxwBGj-1" value="" style="rounded=0;whiteSpace=wrap;html=1;fillColor=#ffe6cc;strokeColor=#d79b00;" vertex="1" parent="1">
          <mxGeometry width="120" height="11" as="geometry" />
        </mxCell>
        <mxCell id="ik0_iE2QhQX5W9CxwBGj-3" value="" style="rounded=0;whiteSpace=wrap;html=1;fillColor=#ffe6cc;strokeColor=#d79b00;" vertex="1" parent="1">
          <mxGeometry x="120" width="120" height="11" as="geometry" />
        </mxCell>
        <mxCell id="ik0_iE2QhQX5W9CxwBGj-4" value="" style="rounded=0;whiteSpace=wrap;html=1;fillColor=#ffe6cc;strokeColor=#d79b00;" vertex="1" parent="1">
          <mxGeometry x="240" width="120" height="11" as="geometry" />
        </mxCell>
        <mxCell id="ik0_iE2QhQX5W9CxwBGj-5" value="" style="rounded=0;whiteSpace=wrap;html=1;fillColor=#ffe6cc;strokeColor=#d79b00;" vertex="1" parent="1">
          <mxGeometry x="360" width="120" height="11" as="geometry" />
        </mxCell>
        <mxCell id="ik0_iE2QhQX5W9CxwBGj-6" value="" style="rounded=0;whiteSpace=wrap;html=1;fillColor=#ffe6cc;strokeColor=#d79b00;" vertex="1" parent="1">
          <mxGeometry x="60" y="11" width="120" height="11" as="geometry" />
        </mxCell>
        <mxCell id="ik0_iE2QhQX5W9CxwBGj-7" value="" style="rounded=0;whiteSpace=wrap;html=1;fillColor=#ffe6cc;strokeColor=#d79b00;" vertex="1" parent="1">
          <mxGeometry x="180" y="11" width="120" height="11" as="geometry" />
        </mxCell>
        <mxCell id="ik0_iE2QhQX5W9CxwBGj-8" value="" style="rounded=0;whiteSpace=wrap;html=1;fillColor=#ffe6cc;strokeColor=#d79b00;" vertex="1" parent="1">
          <mxGeometry x="300" y="11" width="120" height="11" as="geometry" />
        </mxCell>
        <mxCell id="ik0_iE2QhQX5W9CxwBGj-12" value="" style="rounded=0;whiteSpace=wrap;html=1;fillColor=#ffe6cc;strokeColor=#d79b00;" vertex="1" parent="1">
          <mxGeometry x="420" y="11" width="60" height="11" as="geometry" />
        </mxCell>
        <mxCell id="ik0_iE2QhQX5W9CxwBGj-13" value="" style="rounded=0;whiteSpace=wrap;html=1;fillColor=#ffe6cc;strokeColor=#d79b00;" vertex="1" parent="1">
          <mxGeometry y="11" width="60" height="11" as="geometry" />
        </mxCell>
        <mxCell id="ik0_iE2QhQX5W9CxwBGj-14" value="" style="rounded=0;whiteSpace=wrap;html=1;fillColor=#ffe6cc;strokeColor=#d79b00;" vertex="1" parent="1">
          <mxGeometry y="22" width="120" height="11" as="geometry" />
        </mxCell>
        <mxCell id="ik0_iE2QhQX5W9CxwBGj-15" value="" style="rounded=0;whiteSpace=wrap;html=1;fillColor=#ffe6cc;strokeColor=#d79b00;" vertex="1" parent="1">
          <mxGeometry x="120" y="22" width="120" height="11" as="geometry" />
        </mxCell>
        <mxCell id="ik0_iE2QhQX5W9CxwBGj-16" value="" style="rounded=0;whiteSpace=wrap;html=1;fillColor=#ffe6cc;strokeColor=#d79b00;" vertex="1" parent="1">
          <mxGeometry x="240" y="22" width="120" height="11" as="geometry" />
        </mxCell>
        <mxCell id="ik0_iE2QhQX5W9CxwBGj-17" value="" style="rounded=0;whiteSpace=wrap;html=1;fillColor=#ffe6cc;strokeColor=#d79b00;" vertex="1" parent="1">
          <mxGeometry x="360" y="22" width="120" height="11" as="geometry" />
        </mxCell>
        <mxCell id="ik0_iE2QhQX5W9CxwBGj-18" value="" style="rounded=0;whiteSpace=wrap;html=1;fillColor=#ffe6cc;strokeColor=#d79b00;" vertex="1" parent="1">
          <mxGeometry x="60" y="33" width="120" height="11" as="geometry" />
        </mxCell>
        <mxCell id="ik0_iE2QhQX5W9CxwBGj-19" value="" style="rounded=0;whiteSpace=wrap;html=1;fillColor=#ffe6cc;strokeColor=#d79b00;" vertex="1" parent="1">
          <mxGeometry x="180" y="33" width="120" height="11" as="geometry" />
        </mxCell>
        <mxCell id="ik0_iE2QhQX5W9CxwBGj-20" value="" style="rounded=0;whiteSpace=wrap;html=1;fillColor=#ffe6cc;strokeColor=#d79b00;" vertex="1" parent="1">
          <mxGeometry x="300" y="33" width="120" height="11" as="geometry" />
        </mxCell>
        <mxCell id="ik0_iE2QhQX5W9CxwBGj-21" value="" style="rounded=0;whiteSpace=wrap;html=1;fillColor=#ffe6cc;strokeColor=#d79b00;" vertex="1" parent="1">
          <mxGeometry x="420" y="33" width="60" height="11" as="geometry" />
        </mxCell>
        <mxCell id="ik0_iE2QhQX5W9CxwBGj-22" value="" style="rounded=0;whiteSpace=wrap;html=1;fillColor=#ffe6cc;strokeColor=#d79b00;" vertex="1" parent="1">
          <mxGeometry y="33" width="60" height="11" as="geometry" />
        </mxCell>
        <mxCell id="ik0_iE2QhQX5W9CxwBGj-23" value="" style="rounded=0;whiteSpace=wrap;html=1;fillColor=#ffe6cc;strokeColor=#d79b00;" vertex="1" parent="1">
          <mxGeometry y="44" width="120" height="11" as="geometry" />
        </mxCell>
        <mxCell id="ik0_iE2QhQX5W9CxwBGj-24" value="" style="rounded=0;whiteSpace=wrap;html=1;fillColor=#ffe6cc;strokeColor=#d79b00;" vertex="1" parent="1">
          <mxGeometry x="120" y="44" width="120" height="11" as="geometry" />
        </mxCell>
        <mxCell id="ik0_iE2QhQX5W9CxwBGj-25" value="" style="rounded=0;whiteSpace=wrap;html=1;fillColor=#ffe6cc;strokeColor=#d79b00;" vertex="1" parent="1">
          <mxGeometry x="240" y="44" width="120" height="11" as="geometry" />
        </mxCell>
        <mxCell id="ik0_iE2QhQX5W9CxwBGj-26" value="" style="rounded=0;whiteSpace=wrap;html=1;fillColor=#ffe6cc;strokeColor=#d79b00;" vertex="1" parent="1">
          <mxGeometry x="360" y="44" width="120" height="11" as="geometry" />
        </mxCell>
        <mxCell id="ik0_iE2QhQX5W9CxwBGj-27" value="" style="rounded=0;whiteSpace=wrap;html=1;fillColor=#ffe6cc;strokeColor=#d79b00;" vertex="1" parent="1">
          <mxGeometry x="60" y="55" width="120" height="11" as="geometry" />
        </mxCell>
        <mxCell id="ik0_iE2QhQX5W9CxwBGj-28" value="" style="rounded=0;whiteSpace=wrap;html=1;fillColor=#ffe6cc;strokeColor=#d79b00;" vertex="1" parent="1">
          <mxGeometry x="180" y="55" width="120" height="11" as="geometry" />
        </mxCell>
        <mxCell id="ik0_iE2QhQX5W9CxwBGj-29" value="" style="rounded=0;whiteSpace=wrap;html=1;fillColor=#ffe6cc;strokeColor=#d79b00;" vertex="1" parent="1">
          <mxGeometry x="300" y="55" width="120" height="11" as="geometry" />
        </mxCell>
        <mxCell id="ik0_iE2QhQX5W9CxwBGj-30" value="" style="rounded=0;whiteSpace=wrap;html=1;fillColor=#ffe6cc;strokeColor=#d79b00;" vertex="1" parent="1">
          <mxGeometry x="420" y="55" width="60" height="11" as="geometry" />
        </mxCell>
        <mxCell id="ik0_iE2QhQX5W9CxwBGj-31" value="" style="rounded=0;whiteSpace=wrap;html=1;fillColor=#ffe6cc;strokeColor=#d79b00;" vertex="1" parent="1">
          <mxGeometry y="55" width="60" height="11" as="geometry" />
        </mxCell>
        <mxCell id="ik0_iE2QhQX5W9CxwBGj-32" value="" style="rounded=0;whiteSpace=wrap;html=1;fillColor=#ffe6cc;strokeColor=#d79b00;" vertex="1" parent="1">
          <mxGeometry y="66" width="120" height="11" as="geometry" />
        </mxCell>
        <mxCell id="ik0_iE2QhQX5W9CxwBGj-33" value="" style="rounded=0;whiteSpace=wrap;html=1;fillColor=#ffe6cc;strokeColor=#d79b00;" vertex="1" parent="1">
          <mxGeometry x="120" y="66" width="120" height="11" as="geometry" />
        </mxCell>
        <mxCell id="ik0_iE2QhQX5W9CxwBGj-34" value="" style="rounded=0;whiteSpace=wrap;html=1;fillColor=#ffe6cc;strokeColor=#d79b00;" vertex="1" parent="1">
          <mxGeometry x="240" y="66" width="120" height="11" as="geometry" />
        </mxCell>
        <mxCell id="ik0_iE2QhQX5W9CxwBGj-35" value="" style="rounded=0;whiteSpace=wrap;html=1;fillColor=#ffe6cc;strokeColor=#d79b00;" vertex="1" parent="1">
          <mxGeometry x="360" y="66" width="120" height="11" as="geometry" />
        </mxCell>
        <mxCell id="ik0_iE2QhQX5W9CxwBGj-36" value="" style="rounded=0;whiteSpace=wrap;html=1;fillColor=#ffe6cc;strokeColor=#d79b00;" vertex="1" parent="1">
          <mxGeometry x="60" y="77" width="120" height="11" as="geometry" />
        </mxCell>
        <mxCell id="ik0_iE2QhQX5W9CxwBGj-37" value="" style="rounded=0;whiteSpace=wrap;html=1;fillColor=#ffe6cc;strokeColor=#d79b00;" vertex="1" parent="1">
          <mxGeometry x="180" y="77" width="120" height="11" as="geometry" />
        </mxCell>
        <mxCell id="ik0_iE2QhQX5W9CxwBGj-38" value="" style="rounded=0;whiteSpace=wrap;html=1;fillColor=#ffe6cc;strokeColor=#d79b00;" vertex="1" parent="1">
          <mxGeometry x="300" y="77" width="120" height="11" as="geometry" />
        </mxCell>
        <mxCell id="ik0_iE2QhQX5W9CxwBGj-39" value="" style="rounded=0;whiteSpace=wrap;html=1;fillColor=#ffe6cc;strokeColor=#d79b00;" vertex="1" parent="1">
          <mxGeometry x="420" y="77" width="60" height="11" as="geometry" />
        </mxCell>
        <mxCell id="ik0_iE2QhQX5W9CxwBGj-40" value="" style="rounded=0;whiteSpace=wrap;html=1;fillColor=#ffe6cc;strokeColor=#d79b00;" vertex="1" parent="1">
          <mxGeometry y="77" width="60" height="11" as="geometry" />
        </mxCell>
        <mxCell id="ik0_iE2QhQX5W9CxwBGj-41" value="" style="rounded=0;whiteSpace=wrap;html=1;fillColor=#ffe6cc;strokeColor=#d79b00;" vertex="1" parent="1">
          <mxGeometry y="88" width="120" height="11" as="geometry" />
        </mxCell>
        <mxCell id="ik0_iE2QhQX5W9CxwBGj-42" value="" style="rounded=0;whiteSpace=wrap;html=1;fillColor=#ffe6cc;strokeColor=#d79b00;" vertex="1" parent="1">
          <mxGeometry x="120" y="88" width="120" height="11" as="geometry" />
        </mxCell>
        <mxCell id="ik0_iE2QhQX5W9CxwBGj-43" value="" style="rounded=0;whiteSpace=wrap;html=1;fillColor=#ffe6cc;strokeColor=#d79b00;" vertex="1" parent="1">
          <mxGeometry x="240" y="88" width="120" height="11" as="geometry" />
        </mxCell>
        <mxCell id="ik0_iE2QhQX5W9CxwBGj-44" value="" style="rounded=0;whiteSpace=wrap;html=1;fillColor=#ffe6cc;strokeColor=#d79b00;" vertex="1" parent="1">
          <mxGeometry x="360" y="88" width="120" height="11" as="geometry" />
        </mxCell>
        <mxCell id="ik0_iE2QhQX5W9CxwBGj-45" value="" style="rounded=0;whiteSpace=wrap;html=1;fillColor=#ffe6cc;strokeColor=#d79b00;" vertex="1" parent="1">
          <mxGeometry x="60" y="99" width="120" height="11" as="geometry" />
        </mxCell>
        <mxCell id="ik0_iE2QhQX5W9CxwBGj-46" value="" style="rounded=0;whiteSpace=wrap;html=1;fillColor=#ffe6cc;strokeColor=#d79b00;" vertex="1" parent="1">
          <mxGeometry x="180" y="99" width="120" height="11" as="geometry" />
        </mxCell>
        <mxCell id="ik0_iE2QhQX5W9CxwBGj-47" value="" style="rounded=0;whiteSpace=wrap;html=1;fillColor=#ffe6cc;strokeColor=#d79b00;" vertex="1" parent="1">
          <mxGeometry x="300" y="99" width="120" height="11" as="geometry" />
        </mxCell>
        <mxCell id="ik0_iE2QhQX5W9CxwBGj-48" value="" style="rounded=0;whiteSpace=wrap;html=1;fillColor=#ffe6cc;strokeColor=#d79b00;" vertex="1" parent="1">
          <mxGeometry x="420" y="99" width="60" height="11" as="geometry" />
        </mxCell>
        <mxCell id="ik0_iE2QhQX5W9CxwBGj-49" value="" style="rounded=0;whiteSpace=wrap;html=1;fillColor=#ffe6cc;strokeColor=#d79b00;" vertex="1" parent="1">
          <mxGeometry y="99" width="60" height="11" as="geometry" />
        </mxCell>
        <mxCell id="ik0_iE2QhQX5W9CxwBGj-50" value="" style="rounded=0;whiteSpace=wrap;html=1;fillColor=#ffe6cc;strokeColor=#d79b00;" vertex="1" parent="1">
          <mxGeometry y="110" width="120" height="11" as="geometry" />
        </mxCell>
        <mxCell id="ik0_iE2QhQX5W9CxwBGj-51" value="" style="rounded=0;whiteSpace=wrap;html=1;fillColor=#ffe6cc;strokeColor=#d79b00;" vertex="1" parent="1">
          <mxGeometry x="120" y="110" width="120" height="11" as="geometry" />
        </mxCell>
        <mxCell id="ik0_iE2QhQX5W9CxwBGj-52" value="" style="rounded=0;whiteSpace=wrap;html=1;fillColor=#ffe6cc;strokeColor=#d79b00;" vertex="1" parent="1">
          <mxGeometry x="240" y="110" width="120" height="11" as="geometry" />
        </mxCell>
        <mxCell id="ik0_iE2QhQX5W9CxwBGj-53" value="" style="rounded=0;whiteSpace=wrap;html=1;fillColor=#ffe6cc;strokeColor=#d79b00;" vertex="1" parent="1">
          <mxGeometry x="360" y="110" width="120" height="11" as="geometry" />
        </mxCell>
        <mxCell id="ik0_iE2QhQX5W9CxwBGj-54" value="" style="rounded=0;whiteSpace=wrap;html=1;fillColor=#ffe6cc;strokeColor=#d79b00;" vertex="1" parent="1">
          <mxGeometry x="60" y="121" width="120" height="11" as="geometry" />
        </mxCell>
        <mxCell id="ik0_iE2QhQX5W9CxwBGj-55" value="" style="rounded=0;whiteSpace=wrap;html=1;fillColor=#ffe6cc;strokeColor=#d79b00;" vertex="1" parent="1">
          <mxGeometry x="180" y="121" width="120" height="11" as="geometry" />
        </mxCell>
        <mxCell id="ik0_iE2QhQX5W9CxwBGj-56" value="" style="rounded=0;whiteSpace=wrap;html=1;fillColor=#ffe6cc;strokeColor=#d79b00;" vertex="1" parent="1">
          <mxGeometry x="300" y="121" width="120" height="11" as="geometry" />
        </mxCell>
        <mxCell id="ik0_iE2QhQX5W9CxwBGj-57" value="" style="rounded=0;whiteSpace=wrap;html=1;fillColor=#ffe6cc;strokeColor=#d79b00;" vertex="1" parent="1">
          <mxGeometry x="420" y="121" width="60" height="11" as="geometry" />
        </mxCell>
        <mxCell id="ik0_iE2QhQX5W9CxwBGj-58" value="" style="rounded=0;whiteSpace=wrap;html=1;fillColor=#ffe6cc;strokeColor=#d79b00;" vertex="1" parent="1">
          <mxGeometry y="121" width="60" height="11" as="geometry" />
        </mxCell>
        <mxCell id="ik0_iE2QhQX5W9CxwBGj-59" value="" style="rounded=0;whiteSpace=wrap;html=1;fillColor=#ffe6cc;strokeColor=#d79b00;" vertex="1" parent="1">
          <mxGeometry y="132" width="120" height="11" as="geometry" />
        </mxCell>
        <mxCell id="ik0_iE2QhQX5W9CxwBGj-60" value="" style="rounded=0;whiteSpace=wrap;html=1;fillColor=#ffe6cc;strokeColor=#d79b00;" vertex="1" parent="1">
          <mxGeometry x="120" y="132" width="120" height="11" as="geometry" />
        </mxCell>
        <mxCell id="ik0_iE2QhQX5W9CxwBGj-61" value="" style="rounded=0;whiteSpace=wrap;html=1;fillColor=#ffe6cc;strokeColor=#d79b00;" vertex="1" parent="1">
          <mxGeometry x="240" y="132" width="120" height="11" as="geometry" />
        </mxCell>
        <mxCell id="ik0_iE2QhQX5W9CxwBGj-62" value="" style="rounded=0;whiteSpace=wrap;html=1;fillColor=#ffe6cc;strokeColor=#d79b00;" vertex="1" parent="1">
          <mxGeometry x="360" y="132" width="120" height="11" as="geometry" />
        </mxCell>
        <mxCell id="ik0_iE2QhQX5W9CxwBGj-63" value="" style="rounded=0;whiteSpace=wrap;html=1;fillColor=#ffe6cc;strokeColor=#d79b00;" vertex="1" parent="1">
          <mxGeometry x="60" y="143" width="120" height="11" as="geometry" />
        </mxCell>
        <mxCell id="ik0_iE2QhQX5W9CxwBGj-64" value="" style="rounded=0;whiteSpace=wrap;html=1;fillColor=#ffe6cc;strokeColor=#d79b00;" vertex="1" parent="1">
          <mxGeometry x="180" y="143" width="120" height="11" as="geometry" />
        </mxCell>
        <mxCell id="ik0_iE2QhQX5W9CxwBGj-65" value="" style="rounded=0;whiteSpace=wrap;html=1;fillColor=#ffe6cc;strokeColor=#d79b00;" vertex="1" parent="1">
          <mxGeometry x="300" y="143" width="120" height="11" as="geometry" />
        </mxCell>
        <mxCell id="ik0_iE2QhQX5W9CxwBGj-66" value="" style="rounded=0;whiteSpace=wrap;html=1;fillColor=#ffe6cc;strokeColor=#d79b00;" vertex="1" parent="1">
          <mxGeometry x="420" y="143" width="60" height="11" as="geometry" />
        </mxCell>
        <mxCell id="ik0_iE2QhQX5W9CxwBGj-67" value="" style="rounded=0;whiteSpace=wrap;html=1;fillColor=#ffe6cc;strokeColor=#d79b00;" vertex="1" parent="1">
          <mxGeometry y="143" width="60" height="11" as="geometry" />
        </mxCell>
        <mxCell id="ik0_iE2QhQX5W9CxwBGj-68" value="" style="rounded=0;whiteSpace=wrap;html=1;fillColor=#ffe6cc;strokeColor=#d79b00;" vertex="1" parent="1">
          <mxGeometry y="154" width="120" height="11" as="geometry" />
        </mxCell>
        <mxCell id="ik0_iE2QhQX5W9CxwBGj-69" value="" style="rounded=0;whiteSpace=wrap;html=1;fillColor=#ffe6cc;strokeColor=#d79b00;" vertex="1" parent="1">
          <mxGeometry x="120" y="154" width="120" height="11" as="geometry" />
        </mxCell>
        <mxCell id="ik0_iE2QhQX5W9CxwBGj-70" value="" style="rounded=0;whiteSpace=wrap;html=1;fillColor=#ffe6cc;strokeColor=#d79b00;" vertex="1" parent="1">
          <mxGeometry x="240" y="154" width="120" height="11" as="geometry" />
        </mxCell>
        <mxCell id="ik0_iE2QhQX5W9CxwBGj-71" value="" style="rounded=0;whiteSpace=wrap;html=1;fillColor=#ffe6cc;strokeColor=#d79b00;" vertex="1" parent="1">
          <mxGeometry x="360" y="154" width="120" height="11" as="geometry" />
        </mxCell>
        <mxCell id="ik0_iE2QhQX5W9CxwBGj-72" value="" style="rounded=0;whiteSpace=wrap;html=1;fillColor=#ffe6cc;strokeColor=#d79b00;" vertex="1" parent="1">
          <mxGeometry x="60" y="165" width="120" height="11" as="geometry" />
        </mxCell>
        <mxCell id="ik0_iE2QhQX5W9CxwBGj-73" value="" style="rounded=0;whiteSpace=wrap;html=1;fillColor=#ffe6cc;strokeColor=#d79b00;" vertex="1" parent="1">
          <mxGeometry x="180" y="165" width="120" height="11" as="geometry" />
        </mxCell>
        <mxCell id="ik0_iE2QhQX5W9CxwBGj-74" value="" style="rounded=0;whiteSpace=wrap;html=1;fillColor=#ffe6cc;strokeColor=#d79b00;" vertex="1" parent="1">
          <mxGeometry x="300" y="165" width="120" height="11" as="geometry" />
        </mxCell>
        <mxCell id="ik0_iE2QhQX5W9CxwBGj-75" value="" style="rounded=0;whiteSpace=wrap;html=1;fillColor=#ffe6cc;strokeColor=#d79b00;" vertex="1" parent="1">
          <mxGeometry x="420" y="165" width="60" height="11" as="geometry" />
        </mxCell>
        <mxCell id="ik0_iE2QhQX5W9CxwBGj-76" value="" style="rounded=0;whiteSpace=wrap;html=1;fillColor=#ffe6cc;strokeColor=#d79b00;" vertex="1" parent="1">
          <mxGeometry y="165" width="60" height="11" as="geometry" />
        </mxCell>
        <mxCell id="ik0_iE2QhQX5W9CxwBGj-578" value="" style="rounded=0;whiteSpace=wrap;html=1;" vertex="1" parent="1">
          <mxGeometry width="130" height="30" as="geometry" />
        </mxCell>
        <mxCell id="ik0_iE2QhQX5W9CxwBGj-580" value="" style="rounded=0;whiteSpace=wrap;html=1;" vertex="1" parent="1">
          <mxGeometry x="131" width="130" height="30" as="geometry" />
        </mxCell>
        <mxCell id="ik0_iE2QhQX5W9CxwBGj-581" value="" style="rounded=0;whiteSpace=wrap;html=1;" vertex="1" parent="1">
          <mxGeometry x="261" width="130" height="30" as="geometry" />
        </mxCell>
        <mxCell id="ik0_iE2QhQX5W9CxwBGj-582" value="" style="rounded=0;whiteSpace=wrap;html=1;" vertex="1" parent="1">
          <mxGeometry x="391" width="89" height="30" as="geometry" />
        </mxCell>
        <mxCell id="ik0_iE2QhQX5W9CxwBGj-583" value="" style="rounded=0;whiteSpace=wrap;html=1;" vertex="1" parent="1">
          <mxGeometry x="460" y="30" width="20" height="30" as="geometry" />
        </mxCell>
        <mxCell id="ik0_iE2QhQX5W9CxwBGj-584" value="" style="rounded=0;whiteSpace=wrap;html=1;" vertex="1" parent="1">
          <mxGeometry y="30" width="70" height="30" as="geometry" />
        </mxCell>
        <mxCell id="ik0_iE2QhQX5W9CxwBGj-585" value="" style="rounded=0;whiteSpace=wrap;html=1;" vertex="1" parent="1">
          <mxGeometry x="70" y="30" width="130" height="30" as="geometry" />
        </mxCell>
        <mxCell id="ik0_iE2QhQX5W9CxwBGj-586" value="" style="rounded=0;whiteSpace=wrap;html=1;" vertex="1" parent="1">
          <mxGeometry x="200" y="30" width="130" height="30" as="geometry" />
        </mxCell>
        <mxCell id="ik0_iE2QhQX5W9CxwBGj-587" value="" style="rounded=0;whiteSpace=wrap;html=1;" vertex="1" parent="1">
          <mxGeometry x="330" y="30" width="130" height="30" as="geometry" />
        </mxCell>
        <mxCell id="ik0_iE2QhQX5W9CxwBGj-628" value="" style="group" vertex="1" connectable="0" parent="1">
          <mxGeometry x="473" y="3" width="1" height="170" as="geometry" />
        </mxCell>
        <mxCell id="ik0_iE2QhQX5W9CxwBGj-629" value="" style="ellipse;whiteSpace=wrap;html=1;aspect=fixed;fillColor=#000000;strokeColor=none;container=0;" vertex="1" parent="ik0_iE2QhQX5W9CxwBGj-628">
          <mxGeometry y="5.1515151515151505" width="0.776255707762557" height="0.776255707762557" as="geometry" />
        </mxCell>
        <mxCell id="ik0_iE2QhQX5W9CxwBGj-630" value="" style="ellipse;whiteSpace=wrap;html=1;aspect=fixed;fillColor=#000000;strokeColor=none;container=0;" vertex="1" parent="ik0_iE2QhQX5W9CxwBGj-628">
          <mxGeometry y="37.77777777777777" width="0.776255707762557" height="0.776255707762557" as="geometry" />
        </mxCell>
        <mxCell id="ik0_iE2QhQX5W9CxwBGj-631" value="" style="ellipse;whiteSpace=wrap;html=1;aspect=fixed;fillColor=#000000;strokeColor=none;container=0;" vertex="1" parent="ik0_iE2QhQX5W9CxwBGj-628">
          <mxGeometry y="73.83838383838382" width="0.776255707762557" height="0.776255707762557" as="geometry" />
        </mxCell>
        <mxCell id="ik0_iE2QhQX5W9CxwBGj-632" value="" style="ellipse;whiteSpace=wrap;html=1;aspect=fixed;fillColor=#000000;strokeColor=none;container=0;" vertex="1" parent="ik0_iE2QhQX5W9CxwBGj-628">
          <mxGeometry y="78.98989898989899" width="0.776255707762557" height="0.776255707762557" as="geometry" />
        </mxCell>
        <mxCell id="ik0_iE2QhQX5W9CxwBGj-633" value="" style="ellipse;whiteSpace=wrap;html=1;aspect=fixed;fillColor=#000000;strokeColor=none;container=0;" vertex="1" parent="ik0_iE2QhQX5W9CxwBGj-628">
          <mxGeometry y="82.42424242424241" width="0.776255707762557" height="0.776255707762557" as="geometry" />
        </mxCell>
        <mxCell id="ik0_iE2QhQX5W9CxwBGj-634" value="" style="ellipse;whiteSpace=wrap;html=1;aspect=fixed;fillColor=#000000;strokeColor=none;container=0;" vertex="1" parent="ik0_iE2QhQX5W9CxwBGj-628">
          <mxGeometry y="87.57575757575758" width="0.776255707762557" height="0.776255707762557" as="geometry" />
        </mxCell>
        <mxCell id="ik0_iE2QhQX5W9CxwBGj-635" value="" style="ellipse;whiteSpace=wrap;html=1;aspect=fixed;fillColor=#000000;strokeColor=none;container=0;" vertex="1" parent="ik0_iE2QhQX5W9CxwBGj-628">
          <mxGeometry y="109.89898989898988" width="0.776255707762557" height="0.776255707762557" as="geometry" />
        </mxCell>
        <mxCell id="ik0_iE2QhQX5W9CxwBGj-636" value="" style="ellipse;whiteSpace=wrap;html=1;aspect=fixed;fillColor=#000000;strokeColor=none;container=0;" vertex="1" parent="ik0_iE2QhQX5W9CxwBGj-628">
          <mxGeometry y="115.05050505050505" width="0.776255707762557" height="0.776255707762557" as="geometry" />
        </mxCell>
        <mxCell id="ik0_iE2QhQX5W9CxwBGj-637" value="" style="ellipse;whiteSpace=wrap;html=1;aspect=fixed;fillColor=#000000;strokeColor=none;container=0;" vertex="1" parent="ik0_iE2QhQX5W9CxwBGj-628">
          <mxGeometry y="120.2020202020202" width="0.776255707762557" height="0.776255707762557" as="geometry" />
        </mxCell>
        <mxCell id="ik0_iE2QhQX5W9CxwBGj-638" value="" style="ellipse;whiteSpace=wrap;html=1;aspect=fixed;fillColor=#000000;strokeColor=none;container=0;" vertex="1" parent="ik0_iE2QhQX5W9CxwBGj-628">
          <mxGeometry y="137.37373737373736" width="0.776255707762557" height="0.776255707762557" as="geometry" />
        </mxCell>
        <mxCell id="ik0_iE2QhQX5W9CxwBGj-639" value="" style="ellipse;whiteSpace=wrap;html=1;aspect=fixed;fillColor=#000000;strokeColor=none;container=0;" vertex="1" parent="ik0_iE2QhQX5W9CxwBGj-628">
          <mxGeometry y="156.26262626262624" width="0.776255707762557" height="0.776255707762557" as="geometry" />
        </mxCell>
        <mxCell id="ik0_iE2QhQX5W9CxwBGj-640" value="" style="ellipse;whiteSpace=wrap;html=1;aspect=fixed;fillColor=#000000;strokeColor=none;container=0;" vertex="1" parent="ik0_iE2QhQX5W9CxwBGj-628">
          <mxGeometry y="161.4141414141414" width="0.776255707762557" height="0.776255707762557" as="geometry" />
        </mxCell>
        <mxCell id="ik0_iE2QhQX5W9CxwBGj-641" value="" style="ellipse;whiteSpace=wrap;html=1;aspect=fixed;fillColor=#000000;strokeColor=none;container=0;" vertex="1" parent="ik0_iE2QhQX5W9CxwBGj-628">
          <mxGeometry y="170" as="geometry" />
        </mxCell>
        <mxCell id="ik0_iE2QhQX5W9CxwBGj-642" value="" style="ellipse;whiteSpace=wrap;html=1;aspect=fixed;fillColor=#000000;strokeColor=none;container=0;" vertex="1" parent="ik0_iE2QhQX5W9CxwBGj-628">
          <mxGeometry width="0.776255707762557" height="0.776255707762557" as="geometry" />
        </mxCell>
        <mxCell id="ik0_iE2QhQX5W9CxwBGj-643" value="" style="ellipse;whiteSpace=wrap;html=1;aspect=fixed;fillColor=#000000;strokeColor=none;container=0;" vertex="1" parent="ik0_iE2QhQX5W9CxwBGj-628">
          <mxGeometry y="13.737373737373735" width="0.776255707762557" height="0.776255707762557" as="geometry" />
        </mxCell>
        <mxCell id="ik0_iE2QhQX5W9CxwBGj-644" value="" style="ellipse;whiteSpace=wrap;html=1;aspect=fixed;fillColor=#000000;strokeColor=none;container=0;" vertex="1" parent="ik0_iE2QhQX5W9CxwBGj-628">
          <mxGeometry y="41.212121212121204" width="0.776255707762557" height="0.776255707762557" as="geometry" />
        </mxCell>
        <mxCell id="ik0_iE2QhQX5W9CxwBGj-645" value="" style="ellipse;whiteSpace=wrap;html=1;aspect=fixed;fillColor=#000000;strokeColor=none;container=0;" vertex="1" parent="ik0_iE2QhQX5W9CxwBGj-628">
          <mxGeometry y="46.36363636363635" width="0.776255707762557" height="0.776255707762557" as="geometry" />
        </mxCell>
        <mxCell id="ik0_iE2QhQX5W9CxwBGj-646" value="" style="ellipse;whiteSpace=wrap;html=1;aspect=fixed;fillColor=#000000;strokeColor=none;container=0;" vertex="1" parent="ik0_iE2QhQX5W9CxwBGj-628">
          <mxGeometry y="51.51515151515151" width="0.776255707762557" height="0.776255707762557" as="geometry" />
        </mxCell>
        <mxCell id="ik0_iE2QhQX5W9CxwBGj-647" value="" style="ellipse;whiteSpace=wrap;html=1;aspect=fixed;fillColor=#000000;strokeColor=none;container=0;" vertex="1" parent="ik0_iE2QhQX5W9CxwBGj-628">
          <mxGeometry y="54.94949494949494" width="0.776255707762557" height="0.776255707762557" as="geometry" />
        </mxCell>
        <mxCell id="ik0_iE2QhQX5W9CxwBGj-648" value="" style="ellipse;whiteSpace=wrap;html=1;aspect=fixed;fillColor=#000000;strokeColor=none;container=0;" vertex="1" parent="ik0_iE2QhQX5W9CxwBGj-628">
          <mxGeometry y="92.7272727272727" width="0.776255707762557" height="0.776255707762557" as="geometry" />
        </mxCell>
        <mxCell id="ik0_iE2QhQX5W9CxwBGj-649" value="" style="ellipse;whiteSpace=wrap;html=1;aspect=fixed;fillColor=#000000;strokeColor=none;container=0;" vertex="1" parent="ik0_iE2QhQX5W9CxwBGj-628">
          <mxGeometry y="96.16161616161614" width="0.776255707762557" height="0.776255707762557" as="geometry" />
        </mxCell>
        <mxCell id="ik0_iE2QhQX5W9CxwBGj-650" value="" style="ellipse;whiteSpace=wrap;html=1;aspect=fixed;fillColor=#000000;strokeColor=none;container=0;" vertex="1" parent="ik0_iE2QhQX5W9CxwBGj-628">
          <mxGeometry y="101.3131313131313" width="0.776255707762557" height="0.776255707762557" as="geometry" />
        </mxCell>
        <mxCell id="ik0_iE2QhQX5W9CxwBGj-651" value="" style="ellipse;whiteSpace=wrap;html=1;aspect=fixed;fillColor=#000000;strokeColor=none;container=0;" vertex="1" parent="ik0_iE2QhQX5W9CxwBGj-628">
          <mxGeometry y="123.63636363636364" width="0.776255707762557" height="0.776255707762557" as="geometry" />
        </mxCell>
        <mxCell id="ik0_iE2QhQX5W9CxwBGj-652" value="" style="ellipse;whiteSpace=wrap;html=1;aspect=fixed;fillColor=#000000;strokeColor=none;container=0;" vertex="1" parent="ik0_iE2QhQX5W9CxwBGj-628">
          <mxGeometry y="142.5252525252525" width="0.776255707762557" height="0.776255707762557" as="geometry" />
        </mxCell>
        <mxCell id="ik0_iE2QhQX5W9CxwBGj-653" value="" style="ellipse;whiteSpace=wrap;html=1;aspect=fixed;fillColor=#000000;strokeColor=none;container=0;" vertex="1" parent="ik0_iE2QhQX5W9CxwBGj-628">
          <mxGeometry y="147.67676767676764" width="0.776255707762557" height="0.776255707762557" as="geometry" />
        </mxCell>
        <mxCell id="ik0_iE2QhQX5W9CxwBGj-654" value="" style="ellipse;whiteSpace=wrap;html=1;aspect=fixed;fillColor=#000000;strokeColor=none;container=0;" vertex="1" parent="ik0_iE2QhQX5W9CxwBGj-628">
          <mxGeometry y="164.84848484848482" width="0.776255707762557" height="0.776255707762557" as="geometry" />
        </mxCell>
        <mxCell id="ik0_iE2QhQX5W9CxwBGj-655" value="" style="ellipse;whiteSpace=wrap;html=1;aspect=fixed;fillColor=#000000;strokeColor=none;container=0;" vertex="1" parent="ik0_iE2QhQX5W9CxwBGj-628">
          <mxGeometry y="10.303030303030301" width="0.776255707762557" height="0.776255707762557" as="geometry" />
        </mxCell>
        <mxCell id="ik0_iE2QhQX5W9CxwBGj-656" value="" style="ellipse;whiteSpace=wrap;html=1;aspect=fixed;fillColor=#000000;strokeColor=none;container=0;" vertex="1" parent="ik0_iE2QhQX5W9CxwBGj-628">
          <mxGeometry y="18.888888888888886" width="0.776255707762557" height="0.776255707762557" as="geometry" />
        </mxCell>
        <mxCell id="ik0_iE2QhQX5W9CxwBGj-657" value="" style="ellipse;whiteSpace=wrap;html=1;aspect=fixed;fillColor=#000000;strokeColor=none;container=0;" vertex="1" parent="ik0_iE2QhQX5W9CxwBGj-628">
          <mxGeometry y="24.040404040404034" width="0.776255707762557" height="0.776255707762557" as="geometry" />
        </mxCell>
        <mxCell id="ik0_iE2QhQX5W9CxwBGj-658" value="" style="ellipse;whiteSpace=wrap;html=1;aspect=fixed;fillColor=#000000;strokeColor=none;container=0;" vertex="1" parent="ik0_iE2QhQX5W9CxwBGj-628">
          <mxGeometry y="27.47474747474747" width="0.776255707762557" height="0.776255707762557" as="geometry" />
        </mxCell>
        <mxCell id="ik0_iE2QhQX5W9CxwBGj-659" value="" style="ellipse;whiteSpace=wrap;html=1;aspect=fixed;fillColor=#000000;strokeColor=none;container=0;" vertex="1" parent="ik0_iE2QhQX5W9CxwBGj-628">
          <mxGeometry y="32.62626262626262" width="0.776255707762557" height="0.776255707762557" as="geometry" />
        </mxCell>
        <mxCell id="ik0_iE2QhQX5W9CxwBGj-660" value="" style="ellipse;whiteSpace=wrap;html=1;aspect=fixed;fillColor=#000000;strokeColor=none;container=0;" vertex="1" parent="ik0_iE2QhQX5W9CxwBGj-628">
          <mxGeometry y="60.1010101010101" width="0.776255707762557" height="0.776255707762557" as="geometry" />
        </mxCell>
        <mxCell id="ik0_iE2QhQX5W9CxwBGj-661" value="" style="ellipse;whiteSpace=wrap;html=1;aspect=fixed;fillColor=#000000;strokeColor=none;container=0;" vertex="1" parent="ik0_iE2QhQX5W9CxwBGj-628">
          <mxGeometry y="65.25252525252525" width="0.776255707762557" height="0.776255707762557" as="geometry" />
        </mxCell>
        <mxCell id="ik0_iE2QhQX5W9CxwBGj-662" value="" style="ellipse;whiteSpace=wrap;html=1;aspect=fixed;fillColor=#000000;strokeColor=none;container=0;" vertex="1" parent="ik0_iE2QhQX5W9CxwBGj-628">
          <mxGeometry y="68.68686868686868" width="0.776255707762557" height="0.776255707762557" as="geometry" />
        </mxCell>
        <mxCell id="ik0_iE2QhQX5W9CxwBGj-663" value="" style="ellipse;whiteSpace=wrap;html=1;aspect=fixed;fillColor=#000000;strokeColor=none;container=0;" vertex="1" parent="ik0_iE2QhQX5W9CxwBGj-628">
          <mxGeometry y="106.46464646464646" width="0.776255707762557" height="0.776255707762557" as="geometry" />
        </mxCell>
        <mxCell id="ik0_iE2QhQX5W9CxwBGj-664" value="" style="ellipse;whiteSpace=wrap;html=1;aspect=fixed;fillColor=#000000;strokeColor=none;container=0;" vertex="1" parent="ik0_iE2QhQX5W9CxwBGj-628">
          <mxGeometry y="128.78787878787878" width="0.776255707762557" height="0.776255707762557" as="geometry" />
        </mxCell>
        <mxCell id="ik0_iE2QhQX5W9CxwBGj-665" value="" style="ellipse;whiteSpace=wrap;html=1;aspect=fixed;fillColor=#000000;strokeColor=none;container=0;" vertex="1" parent="ik0_iE2QhQX5W9CxwBGj-628">
          <mxGeometry y="133.9393939393939" width="0.776255707762557" height="0.776255707762557" as="geometry" />
        </mxCell>
        <mxCell id="ik0_iE2QhQX5W9CxwBGj-666" value="" style="ellipse;whiteSpace=wrap;html=1;aspect=fixed;fillColor=#000000;strokeColor=none;container=0;" vertex="1" parent="ik0_iE2QhQX5W9CxwBGj-628">
          <mxGeometry y="151.1111111111111" width="0.776255707762557" height="0.776255707762557" as="geometry" />
        </mxCell>
        <mxCell id="ik0_iE2QhQX5W9CxwBGj-667" value="" style="group" vertex="1" connectable="0" parent="1">
          <mxGeometry x="423" y="3" width="1" height="170" as="geometry" />
        </mxCell>
        <mxCell id="ik0_iE2QhQX5W9CxwBGj-668" value="" style="ellipse;whiteSpace=wrap;html=1;aspect=fixed;fillColor=#000000;strokeColor=none;container=0;" vertex="1" parent="ik0_iE2QhQX5W9CxwBGj-667">
          <mxGeometry y="5.1515151515151505" width="0.776255707762557" height="0.776255707762557" as="geometry" />
        </mxCell>
        <mxCell id="ik0_iE2QhQX5W9CxwBGj-669" value="" style="ellipse;whiteSpace=wrap;html=1;aspect=fixed;fillColor=#000000;strokeColor=none;container=0;" vertex="1" parent="ik0_iE2QhQX5W9CxwBGj-667">
          <mxGeometry y="37.77777777777777" width="0.776255707762557" height="0.776255707762557" as="geometry" />
        </mxCell>
        <mxCell id="ik0_iE2QhQX5W9CxwBGj-670" value="" style="ellipse;whiteSpace=wrap;html=1;aspect=fixed;fillColor=#000000;strokeColor=none;container=0;" vertex="1" parent="ik0_iE2QhQX5W9CxwBGj-667">
          <mxGeometry y="73.83838383838382" width="0.776255707762557" height="0.776255707762557" as="geometry" />
        </mxCell>
        <mxCell id="ik0_iE2QhQX5W9CxwBGj-671" value="" style="ellipse;whiteSpace=wrap;html=1;aspect=fixed;fillColor=#000000;strokeColor=none;container=0;" vertex="1" parent="ik0_iE2QhQX5W9CxwBGj-667">
          <mxGeometry y="78.98989898989899" width="0.776255707762557" height="0.776255707762557" as="geometry" />
        </mxCell>
        <mxCell id="ik0_iE2QhQX5W9CxwBGj-672" value="" style="ellipse;whiteSpace=wrap;html=1;aspect=fixed;fillColor=#000000;strokeColor=none;container=0;" vertex="1" parent="ik0_iE2QhQX5W9CxwBGj-667">
          <mxGeometry y="82.42424242424241" width="0.776255707762557" height="0.776255707762557" as="geometry" />
        </mxCell>
        <mxCell id="ik0_iE2QhQX5W9CxwBGj-673" value="" style="ellipse;whiteSpace=wrap;html=1;aspect=fixed;fillColor=#000000;strokeColor=none;container=0;" vertex="1" parent="ik0_iE2QhQX5W9CxwBGj-667">
          <mxGeometry y="87.57575757575758" width="0.776255707762557" height="0.776255707762557" as="geometry" />
        </mxCell>
        <mxCell id="ik0_iE2QhQX5W9CxwBGj-674" value="" style="ellipse;whiteSpace=wrap;html=1;aspect=fixed;fillColor=#000000;strokeColor=none;container=0;" vertex="1" parent="ik0_iE2QhQX5W9CxwBGj-667">
          <mxGeometry y="109.89898989898988" width="0.776255707762557" height="0.776255707762557" as="geometry" />
        </mxCell>
        <mxCell id="ik0_iE2QhQX5W9CxwBGj-675" value="" style="ellipse;whiteSpace=wrap;html=1;aspect=fixed;fillColor=#000000;strokeColor=none;container=0;" vertex="1" parent="ik0_iE2QhQX5W9CxwBGj-667">
          <mxGeometry y="115.05050505050505" width="0.776255707762557" height="0.776255707762557" as="geometry" />
        </mxCell>
        <mxCell id="ik0_iE2QhQX5W9CxwBGj-676" value="" style="ellipse;whiteSpace=wrap;html=1;aspect=fixed;fillColor=#000000;strokeColor=none;container=0;" vertex="1" parent="ik0_iE2QhQX5W9CxwBGj-667">
          <mxGeometry y="120.2020202020202" width="0.776255707762557" height="0.776255707762557" as="geometry" />
        </mxCell>
        <mxCell id="ik0_iE2QhQX5W9CxwBGj-677" value="" style="ellipse;whiteSpace=wrap;html=1;aspect=fixed;fillColor=#000000;strokeColor=none;container=0;" vertex="1" parent="ik0_iE2QhQX5W9CxwBGj-667">
          <mxGeometry y="137.37373737373736" width="0.776255707762557" height="0.776255707762557" as="geometry" />
        </mxCell>
        <mxCell id="ik0_iE2QhQX5W9CxwBGj-678" value="" style="ellipse;whiteSpace=wrap;html=1;aspect=fixed;fillColor=#000000;strokeColor=none;container=0;" vertex="1" parent="ik0_iE2QhQX5W9CxwBGj-667">
          <mxGeometry y="156.26262626262624" width="0.776255707762557" height="0.776255707762557" as="geometry" />
        </mxCell>
        <mxCell id="ik0_iE2QhQX5W9CxwBGj-679" value="" style="ellipse;whiteSpace=wrap;html=1;aspect=fixed;fillColor=#000000;strokeColor=none;container=0;" vertex="1" parent="ik0_iE2QhQX5W9CxwBGj-667">
          <mxGeometry y="161.4141414141414" width="0.776255707762557" height="0.776255707762557" as="geometry" />
        </mxCell>
        <mxCell id="ik0_iE2QhQX5W9CxwBGj-680" value="" style="ellipse;whiteSpace=wrap;html=1;aspect=fixed;fillColor=#000000;strokeColor=none;container=0;" vertex="1" parent="ik0_iE2QhQX5W9CxwBGj-667">
          <mxGeometry y="170" as="geometry" />
        </mxCell>
        <mxCell id="ik0_iE2QhQX5W9CxwBGj-681" value="" style="ellipse;whiteSpace=wrap;html=1;aspect=fixed;fillColor=#000000;strokeColor=none;container=0;" vertex="1" parent="ik0_iE2QhQX5W9CxwBGj-667">
          <mxGeometry width="0.776255707762557" height="0.776255707762557" as="geometry" />
        </mxCell>
        <mxCell id="ik0_iE2QhQX5W9CxwBGj-682" value="" style="ellipse;whiteSpace=wrap;html=1;aspect=fixed;fillColor=#000000;strokeColor=none;container=0;" vertex="1" parent="ik0_iE2QhQX5W9CxwBGj-667">
          <mxGeometry y="13.737373737373735" width="0.776255707762557" height="0.776255707762557" as="geometry" />
        </mxCell>
        <mxCell id="ik0_iE2QhQX5W9CxwBGj-683" value="" style="ellipse;whiteSpace=wrap;html=1;aspect=fixed;fillColor=#000000;strokeColor=none;container=0;" vertex="1" parent="ik0_iE2QhQX5W9CxwBGj-667">
          <mxGeometry y="41.212121212121204" width="0.776255707762557" height="0.776255707762557" as="geometry" />
        </mxCell>
        <mxCell id="ik0_iE2QhQX5W9CxwBGj-684" value="" style="ellipse;whiteSpace=wrap;html=1;aspect=fixed;fillColor=#000000;strokeColor=none;container=0;" vertex="1" parent="ik0_iE2QhQX5W9CxwBGj-667">
          <mxGeometry y="46.36363636363635" width="0.776255707762557" height="0.776255707762557" as="geometry" />
        </mxCell>
        <mxCell id="ik0_iE2QhQX5W9CxwBGj-685" value="" style="ellipse;whiteSpace=wrap;html=1;aspect=fixed;fillColor=#000000;strokeColor=none;container=0;" vertex="1" parent="ik0_iE2QhQX5W9CxwBGj-667">
          <mxGeometry y="51.51515151515151" width="0.776255707762557" height="0.776255707762557" as="geometry" />
        </mxCell>
        <mxCell id="ik0_iE2QhQX5W9CxwBGj-686" value="" style="ellipse;whiteSpace=wrap;html=1;aspect=fixed;fillColor=#000000;strokeColor=none;container=0;" vertex="1" parent="ik0_iE2QhQX5W9CxwBGj-667">
          <mxGeometry y="54.94949494949494" width="0.776255707762557" height="0.776255707762557" as="geometry" />
        </mxCell>
        <mxCell id="ik0_iE2QhQX5W9CxwBGj-687" value="" style="ellipse;whiteSpace=wrap;html=1;aspect=fixed;fillColor=#000000;strokeColor=none;container=0;" vertex="1" parent="ik0_iE2QhQX5W9CxwBGj-667">
          <mxGeometry y="92.7272727272727" width="0.776255707762557" height="0.776255707762557" as="geometry" />
        </mxCell>
        <mxCell id="ik0_iE2QhQX5W9CxwBGj-688" value="" style="ellipse;whiteSpace=wrap;html=1;aspect=fixed;fillColor=#000000;strokeColor=none;container=0;" vertex="1" parent="ik0_iE2QhQX5W9CxwBGj-667">
          <mxGeometry y="96.16161616161614" width="0.776255707762557" height="0.776255707762557" as="geometry" />
        </mxCell>
        <mxCell id="ik0_iE2QhQX5W9CxwBGj-689" value="" style="ellipse;whiteSpace=wrap;html=1;aspect=fixed;fillColor=#000000;strokeColor=none;container=0;" vertex="1" parent="ik0_iE2QhQX5W9CxwBGj-667">
          <mxGeometry y="101.3131313131313" width="0.776255707762557" height="0.776255707762557" as="geometry" />
        </mxCell>
        <mxCell id="ik0_iE2QhQX5W9CxwBGj-690" value="" style="ellipse;whiteSpace=wrap;html=1;aspect=fixed;fillColor=#000000;strokeColor=none;container=0;" vertex="1" parent="ik0_iE2QhQX5W9CxwBGj-667">
          <mxGeometry y="123.63636363636364" width="0.776255707762557" height="0.776255707762557" as="geometry" />
        </mxCell>
        <mxCell id="ik0_iE2QhQX5W9CxwBGj-691" value="" style="ellipse;whiteSpace=wrap;html=1;aspect=fixed;fillColor=#000000;strokeColor=none;container=0;" vertex="1" parent="ik0_iE2QhQX5W9CxwBGj-667">
          <mxGeometry y="142.5252525252525" width="0.776255707762557" height="0.776255707762557" as="geometry" />
        </mxCell>
        <mxCell id="ik0_iE2QhQX5W9CxwBGj-692" value="" style="ellipse;whiteSpace=wrap;html=1;aspect=fixed;fillColor=#000000;strokeColor=none;container=0;" vertex="1" parent="ik0_iE2QhQX5W9CxwBGj-667">
          <mxGeometry y="147.67676767676764" width="0.776255707762557" height="0.776255707762557" as="geometry" />
        </mxCell>
        <mxCell id="ik0_iE2QhQX5W9CxwBGj-693" value="" style="ellipse;whiteSpace=wrap;html=1;aspect=fixed;fillColor=#000000;strokeColor=none;container=0;" vertex="1" parent="ik0_iE2QhQX5W9CxwBGj-667">
          <mxGeometry y="164.84848484848482" width="0.776255707762557" height="0.776255707762557" as="geometry" />
        </mxCell>
        <mxCell id="ik0_iE2QhQX5W9CxwBGj-694" value="" style="ellipse;whiteSpace=wrap;html=1;aspect=fixed;fillColor=#000000;strokeColor=none;container=0;" vertex="1" parent="ik0_iE2QhQX5W9CxwBGj-667">
          <mxGeometry y="10.303030303030301" width="0.776255707762557" height="0.776255707762557" as="geometry" />
        </mxCell>
        <mxCell id="ik0_iE2QhQX5W9CxwBGj-695" value="" style="ellipse;whiteSpace=wrap;html=1;aspect=fixed;fillColor=#000000;strokeColor=none;container=0;" vertex="1" parent="ik0_iE2QhQX5W9CxwBGj-667">
          <mxGeometry y="18.888888888888886" width="0.776255707762557" height="0.776255707762557" as="geometry" />
        </mxCell>
        <mxCell id="ik0_iE2QhQX5W9CxwBGj-696" value="" style="ellipse;whiteSpace=wrap;html=1;aspect=fixed;fillColor=#000000;strokeColor=none;container=0;" vertex="1" parent="ik0_iE2QhQX5W9CxwBGj-667">
          <mxGeometry y="24.040404040404034" width="0.776255707762557" height="0.776255707762557" as="geometry" />
        </mxCell>
        <mxCell id="ik0_iE2QhQX5W9CxwBGj-697" value="" style="ellipse;whiteSpace=wrap;html=1;aspect=fixed;fillColor=#000000;strokeColor=none;container=0;" vertex="1" parent="ik0_iE2QhQX5W9CxwBGj-667">
          <mxGeometry y="27.47474747474747" width="0.776255707762557" height="0.776255707762557" as="geometry" />
        </mxCell>
        <mxCell id="ik0_iE2QhQX5W9CxwBGj-698" value="" style="ellipse;whiteSpace=wrap;html=1;aspect=fixed;fillColor=#000000;strokeColor=none;container=0;" vertex="1" parent="ik0_iE2QhQX5W9CxwBGj-667">
          <mxGeometry y="32.62626262626262" width="0.776255707762557" height="0.776255707762557" as="geometry" />
        </mxCell>
        <mxCell id="ik0_iE2QhQX5W9CxwBGj-699" value="" style="ellipse;whiteSpace=wrap;html=1;aspect=fixed;fillColor=#000000;strokeColor=none;container=0;" vertex="1" parent="ik0_iE2QhQX5W9CxwBGj-667">
          <mxGeometry y="60.1010101010101" width="0.776255707762557" height="0.776255707762557" as="geometry" />
        </mxCell>
        <mxCell id="ik0_iE2QhQX5W9CxwBGj-700" value="" style="ellipse;whiteSpace=wrap;html=1;aspect=fixed;fillColor=#000000;strokeColor=none;container=0;" vertex="1" parent="ik0_iE2QhQX5W9CxwBGj-667">
          <mxGeometry y="65.25252525252525" width="0.776255707762557" height="0.776255707762557" as="geometry" />
        </mxCell>
        <mxCell id="ik0_iE2QhQX5W9CxwBGj-701" value="" style="ellipse;whiteSpace=wrap;html=1;aspect=fixed;fillColor=#000000;strokeColor=none;container=0;" vertex="1" parent="ik0_iE2QhQX5W9CxwBGj-667">
          <mxGeometry y="68.68686868686868" width="0.776255707762557" height="0.776255707762557" as="geometry" />
        </mxCell>
        <mxCell id="ik0_iE2QhQX5W9CxwBGj-702" value="" style="ellipse;whiteSpace=wrap;html=1;aspect=fixed;fillColor=#000000;strokeColor=none;container=0;" vertex="1" parent="ik0_iE2QhQX5W9CxwBGj-667">
          <mxGeometry y="106.46464646464646" width="0.776255707762557" height="0.776255707762557" as="geometry" />
        </mxCell>
        <mxCell id="ik0_iE2QhQX5W9CxwBGj-703" value="" style="ellipse;whiteSpace=wrap;html=1;aspect=fixed;fillColor=#000000;strokeColor=none;container=0;" vertex="1" parent="ik0_iE2QhQX5W9CxwBGj-667">
          <mxGeometry y="128.78787878787878" width="0.776255707762557" height="0.776255707762557" as="geometry" />
        </mxCell>
        <mxCell id="ik0_iE2QhQX5W9CxwBGj-704" value="" style="ellipse;whiteSpace=wrap;html=1;aspect=fixed;fillColor=#000000;strokeColor=none;container=0;" vertex="1" parent="ik0_iE2QhQX5W9CxwBGj-667">
          <mxGeometry y="133.9393939393939" width="0.776255707762557" height="0.776255707762557" as="geometry" />
        </mxCell>
        <mxCell id="ik0_iE2QhQX5W9CxwBGj-705" value="" style="ellipse;whiteSpace=wrap;html=1;aspect=fixed;fillColor=#000000;strokeColor=none;container=0;" vertex="1" parent="ik0_iE2QhQX5W9CxwBGj-667">
          <mxGeometry y="151.1111111111111" width="0.776255707762557" height="0.776255707762557" as="geometry" />
        </mxCell>
        <mxCell id="ik0_iE2QhQX5W9CxwBGj-122" value="" style="group" vertex="1" connectable="0" parent="1">
          <mxGeometry x="10" y="3" width="1" height="170" as="geometry" />
        </mxCell>
        <mxCell id="ik0_iE2QhQX5W9CxwBGj-77" value="" style="ellipse;whiteSpace=wrap;html=1;aspect=fixed;fillColor=#000000;strokeColor=none;container=0;" vertex="1" parent="ik0_iE2QhQX5W9CxwBGj-122">
          <mxGeometry y="5.1515151515151505" width="0.776255707762557" height="0.776255707762557" as="geometry" />
        </mxCell>
        <mxCell id="ik0_iE2QhQX5W9CxwBGj-78" value="" style="ellipse;whiteSpace=wrap;html=1;aspect=fixed;fillColor=#000000;strokeColor=none;container=0;" vertex="1" parent="ik0_iE2QhQX5W9CxwBGj-122">
          <mxGeometry y="37.77777777777777" width="0.776255707762557" height="0.776255707762557" as="geometry" />
        </mxCell>
        <mxCell id="ik0_iE2QhQX5W9CxwBGj-79" value="" style="ellipse;whiteSpace=wrap;html=1;aspect=fixed;fillColor=#000000;strokeColor=none;container=0;" vertex="1" parent="ik0_iE2QhQX5W9CxwBGj-122">
          <mxGeometry y="73.83838383838382" width="0.776255707762557" height="0.776255707762557" as="geometry" />
        </mxCell>
        <mxCell id="ik0_iE2QhQX5W9CxwBGj-80" value="" style="ellipse;whiteSpace=wrap;html=1;aspect=fixed;fillColor=#000000;strokeColor=none;container=0;" vertex="1" parent="ik0_iE2QhQX5W9CxwBGj-122">
          <mxGeometry y="78.98989898989899" width="0.776255707762557" height="0.776255707762557" as="geometry" />
        </mxCell>
        <mxCell id="ik0_iE2QhQX5W9CxwBGj-81" value="" style="ellipse;whiteSpace=wrap;html=1;aspect=fixed;fillColor=#000000;strokeColor=none;container=0;" vertex="1" parent="ik0_iE2QhQX5W9CxwBGj-122">
          <mxGeometry y="82.42424242424241" width="0.776255707762557" height="0.776255707762557" as="geometry" />
        </mxCell>
        <mxCell id="ik0_iE2QhQX5W9CxwBGj-82" value="" style="ellipse;whiteSpace=wrap;html=1;aspect=fixed;fillColor=#000000;strokeColor=none;container=0;" vertex="1" parent="ik0_iE2QhQX5W9CxwBGj-122">
          <mxGeometry y="87.57575757575758" width="0.776255707762557" height="0.776255707762557" as="geometry" />
        </mxCell>
        <mxCell id="ik0_iE2QhQX5W9CxwBGj-83" value="" style="ellipse;whiteSpace=wrap;html=1;aspect=fixed;fillColor=#000000;strokeColor=none;container=0;" vertex="1" parent="ik0_iE2QhQX5W9CxwBGj-122">
          <mxGeometry y="109.89898989898988" width="0.776255707762557" height="0.776255707762557" as="geometry" />
        </mxCell>
        <mxCell id="ik0_iE2QhQX5W9CxwBGj-84" value="" style="ellipse;whiteSpace=wrap;html=1;aspect=fixed;fillColor=#000000;strokeColor=none;container=0;" vertex="1" parent="ik0_iE2QhQX5W9CxwBGj-122">
          <mxGeometry y="115.05050505050505" width="0.776255707762557" height="0.776255707762557" as="geometry" />
        </mxCell>
        <mxCell id="ik0_iE2QhQX5W9CxwBGj-85" value="" style="ellipse;whiteSpace=wrap;html=1;aspect=fixed;fillColor=#000000;strokeColor=none;container=0;" vertex="1" parent="ik0_iE2QhQX5W9CxwBGj-122">
          <mxGeometry y="120.2020202020202" width="0.776255707762557" height="0.776255707762557" as="geometry" />
        </mxCell>
        <mxCell id="ik0_iE2QhQX5W9CxwBGj-86" value="" style="ellipse;whiteSpace=wrap;html=1;aspect=fixed;fillColor=#000000;strokeColor=none;container=0;" vertex="1" parent="ik0_iE2QhQX5W9CxwBGj-122">
          <mxGeometry y="137.37373737373736" width="0.776255707762557" height="0.776255707762557" as="geometry" />
        </mxCell>
        <mxCell id="ik0_iE2QhQX5W9CxwBGj-87" value="" style="ellipse;whiteSpace=wrap;html=1;aspect=fixed;fillColor=#000000;strokeColor=none;container=0;" vertex="1" parent="ik0_iE2QhQX5W9CxwBGj-122">
          <mxGeometry y="156.26262626262624" width="0.776255707762557" height="0.776255707762557" as="geometry" />
        </mxCell>
        <mxCell id="ik0_iE2QhQX5W9CxwBGj-88" value="" style="ellipse;whiteSpace=wrap;html=1;aspect=fixed;fillColor=#000000;strokeColor=none;container=0;" vertex="1" parent="ik0_iE2QhQX5W9CxwBGj-122">
          <mxGeometry y="161.4141414141414" width="0.776255707762557" height="0.776255707762557" as="geometry" />
        </mxCell>
        <mxCell id="ik0_iE2QhQX5W9CxwBGj-89" value="" style="ellipse;whiteSpace=wrap;html=1;aspect=fixed;fillColor=#000000;strokeColor=none;container=0;" vertex="1" parent="ik0_iE2QhQX5W9CxwBGj-122">
          <mxGeometry y="170" as="geometry" />
        </mxCell>
        <mxCell id="ik0_iE2QhQX5W9CxwBGj-92" value="" style="ellipse;whiteSpace=wrap;html=1;aspect=fixed;fillColor=#000000;strokeColor=none;container=0;" vertex="1" parent="ik0_iE2QhQX5W9CxwBGj-122">
          <mxGeometry width="0.776255707762557" height="0.776255707762557" as="geometry" />
        </mxCell>
        <mxCell id="ik0_iE2QhQX5W9CxwBGj-93" value="" style="ellipse;whiteSpace=wrap;html=1;aspect=fixed;fillColor=#000000;strokeColor=none;container=0;" vertex="1" parent="ik0_iE2QhQX5W9CxwBGj-122">
          <mxGeometry y="13.737373737373735" width="0.776255707762557" height="0.776255707762557" as="geometry" />
        </mxCell>
        <mxCell id="ik0_iE2QhQX5W9CxwBGj-94" value="" style="ellipse;whiteSpace=wrap;html=1;aspect=fixed;fillColor=#000000;strokeColor=none;container=0;" vertex="1" parent="ik0_iE2QhQX5W9CxwBGj-122">
          <mxGeometry y="41.212121212121204" width="0.776255707762557" height="0.776255707762557" as="geometry" />
        </mxCell>
        <mxCell id="ik0_iE2QhQX5W9CxwBGj-95" value="" style="ellipse;whiteSpace=wrap;html=1;aspect=fixed;fillColor=#000000;strokeColor=none;container=0;" vertex="1" parent="ik0_iE2QhQX5W9CxwBGj-122">
          <mxGeometry y="46.36363636363635" width="0.776255707762557" height="0.776255707762557" as="geometry" />
        </mxCell>
        <mxCell id="ik0_iE2QhQX5W9CxwBGj-96" value="" style="ellipse;whiteSpace=wrap;html=1;aspect=fixed;fillColor=#000000;strokeColor=none;container=0;" vertex="1" parent="ik0_iE2QhQX5W9CxwBGj-122">
          <mxGeometry y="51.51515151515151" width="0.776255707762557" height="0.776255707762557" as="geometry" />
        </mxCell>
        <mxCell id="ik0_iE2QhQX5W9CxwBGj-97" value="" style="ellipse;whiteSpace=wrap;html=1;aspect=fixed;fillColor=#000000;strokeColor=none;container=0;" vertex="1" parent="ik0_iE2QhQX5W9CxwBGj-122">
          <mxGeometry y="54.94949494949494" width="0.776255707762557" height="0.776255707762557" as="geometry" />
        </mxCell>
        <mxCell id="ik0_iE2QhQX5W9CxwBGj-98" value="" style="ellipse;whiteSpace=wrap;html=1;aspect=fixed;fillColor=#000000;strokeColor=none;container=0;" vertex="1" parent="ik0_iE2QhQX5W9CxwBGj-122">
          <mxGeometry y="92.7272727272727" width="0.776255707762557" height="0.776255707762557" as="geometry" />
        </mxCell>
        <mxCell id="ik0_iE2QhQX5W9CxwBGj-99" value="" style="ellipse;whiteSpace=wrap;html=1;aspect=fixed;fillColor=#000000;strokeColor=none;container=0;" vertex="1" parent="ik0_iE2QhQX5W9CxwBGj-122">
          <mxGeometry y="96.16161616161614" width="0.776255707762557" height="0.776255707762557" as="geometry" />
        </mxCell>
        <mxCell id="ik0_iE2QhQX5W9CxwBGj-100" value="" style="ellipse;whiteSpace=wrap;html=1;aspect=fixed;fillColor=#000000;strokeColor=none;container=0;" vertex="1" parent="ik0_iE2QhQX5W9CxwBGj-122">
          <mxGeometry y="101.3131313131313" width="0.776255707762557" height="0.776255707762557" as="geometry" />
        </mxCell>
        <mxCell id="ik0_iE2QhQX5W9CxwBGj-101" value="" style="ellipse;whiteSpace=wrap;html=1;aspect=fixed;fillColor=#000000;strokeColor=none;container=0;" vertex="1" parent="ik0_iE2QhQX5W9CxwBGj-122">
          <mxGeometry y="123.63636363636364" width="0.776255707762557" height="0.776255707762557" as="geometry" />
        </mxCell>
        <mxCell id="ik0_iE2QhQX5W9CxwBGj-102" value="" style="ellipse;whiteSpace=wrap;html=1;aspect=fixed;fillColor=#000000;strokeColor=none;container=0;" vertex="1" parent="ik0_iE2QhQX5W9CxwBGj-122">
          <mxGeometry y="142.5252525252525" width="0.776255707762557" height="0.776255707762557" as="geometry" />
        </mxCell>
        <mxCell id="ik0_iE2QhQX5W9CxwBGj-103" value="" style="ellipse;whiteSpace=wrap;html=1;aspect=fixed;fillColor=#000000;strokeColor=none;container=0;" vertex="1" parent="ik0_iE2QhQX5W9CxwBGj-122">
          <mxGeometry y="147.67676767676764" width="0.776255707762557" height="0.776255707762557" as="geometry" />
        </mxCell>
        <mxCell id="ik0_iE2QhQX5W9CxwBGj-104" value="" style="ellipse;whiteSpace=wrap;html=1;aspect=fixed;fillColor=#000000;strokeColor=none;container=0;" vertex="1" parent="ik0_iE2QhQX5W9CxwBGj-122">
          <mxGeometry y="164.84848484848482" width="0.776255707762557" height="0.776255707762557" as="geometry" />
        </mxCell>
        <mxCell id="ik0_iE2QhQX5W9CxwBGj-107" value="" style="ellipse;whiteSpace=wrap;html=1;aspect=fixed;fillColor=#000000;strokeColor=none;container=0;" vertex="1" parent="ik0_iE2QhQX5W9CxwBGj-122">
          <mxGeometry y="10.303030303030301" width="0.776255707762557" height="0.776255707762557" as="geometry" />
        </mxCell>
        <mxCell id="ik0_iE2QhQX5W9CxwBGj-108" value="" style="ellipse;whiteSpace=wrap;html=1;aspect=fixed;fillColor=#000000;strokeColor=none;container=0;" vertex="1" parent="ik0_iE2QhQX5W9CxwBGj-122">
          <mxGeometry y="18.888888888888886" width="0.776255707762557" height="0.776255707762557" as="geometry" />
        </mxCell>
        <mxCell id="ik0_iE2QhQX5W9CxwBGj-109" value="" style="ellipse;whiteSpace=wrap;html=1;aspect=fixed;fillColor=#000000;strokeColor=none;container=0;" vertex="1" parent="ik0_iE2QhQX5W9CxwBGj-122">
          <mxGeometry y="24.040404040404034" width="0.776255707762557" height="0.776255707762557" as="geometry" />
        </mxCell>
        <mxCell id="ik0_iE2QhQX5W9CxwBGj-110" value="" style="ellipse;whiteSpace=wrap;html=1;aspect=fixed;fillColor=#000000;strokeColor=none;container=0;" vertex="1" parent="ik0_iE2QhQX5W9CxwBGj-122">
          <mxGeometry y="27.47474747474747" width="0.776255707762557" height="0.776255707762557" as="geometry" />
        </mxCell>
        <mxCell id="ik0_iE2QhQX5W9CxwBGj-111" value="" style="ellipse;whiteSpace=wrap;html=1;aspect=fixed;fillColor=#000000;strokeColor=none;container=0;" vertex="1" parent="ik0_iE2QhQX5W9CxwBGj-122">
          <mxGeometry y="32.62626262626262" width="0.776255707762557" height="0.776255707762557" as="geometry" />
        </mxCell>
        <mxCell id="ik0_iE2QhQX5W9CxwBGj-112" value="" style="ellipse;whiteSpace=wrap;html=1;aspect=fixed;fillColor=#000000;strokeColor=none;container=0;" vertex="1" parent="ik0_iE2QhQX5W9CxwBGj-122">
          <mxGeometry y="60.1010101010101" width="0.776255707762557" height="0.776255707762557" as="geometry" />
        </mxCell>
        <mxCell id="ik0_iE2QhQX5W9CxwBGj-113" value="" style="ellipse;whiteSpace=wrap;html=1;aspect=fixed;fillColor=#000000;strokeColor=none;container=0;" vertex="1" parent="ik0_iE2QhQX5W9CxwBGj-122">
          <mxGeometry y="65.25252525252525" width="0.776255707762557" height="0.776255707762557" as="geometry" />
        </mxCell>
        <mxCell id="ik0_iE2QhQX5W9CxwBGj-114" value="" style="ellipse;whiteSpace=wrap;html=1;aspect=fixed;fillColor=#000000;strokeColor=none;container=0;" vertex="1" parent="ik0_iE2QhQX5W9CxwBGj-122">
          <mxGeometry y="68.68686868686868" width="0.776255707762557" height="0.776255707762557" as="geometry" />
        </mxCell>
        <mxCell id="ik0_iE2QhQX5W9CxwBGj-115" value="" style="ellipse;whiteSpace=wrap;html=1;aspect=fixed;fillColor=#000000;strokeColor=none;container=0;" vertex="1" parent="ik0_iE2QhQX5W9CxwBGj-122">
          <mxGeometry y="106.46464646464646" width="0.776255707762557" height="0.776255707762557" as="geometry" />
        </mxCell>
        <mxCell id="ik0_iE2QhQX5W9CxwBGj-116" value="" style="ellipse;whiteSpace=wrap;html=1;aspect=fixed;fillColor=#000000;strokeColor=none;container=0;" vertex="1" parent="ik0_iE2QhQX5W9CxwBGj-122">
          <mxGeometry y="128.78787878787878" width="0.776255707762557" height="0.776255707762557" as="geometry" />
        </mxCell>
        <mxCell id="ik0_iE2QhQX5W9CxwBGj-117" value="" style="ellipse;whiteSpace=wrap;html=1;aspect=fixed;fillColor=#000000;strokeColor=none;container=0;" vertex="1" parent="ik0_iE2QhQX5W9CxwBGj-122">
          <mxGeometry y="133.9393939393939" width="0.776255707762557" height="0.776255707762557" as="geometry" />
        </mxCell>
        <mxCell id="ik0_iE2QhQX5W9CxwBGj-118" value="" style="ellipse;whiteSpace=wrap;html=1;aspect=fixed;fillColor=#000000;strokeColor=none;container=0;" vertex="1" parent="ik0_iE2QhQX5W9CxwBGj-122">
          <mxGeometry y="151.1111111111111" width="0.776255707762557" height="0.776255707762557" as="geometry" />
        </mxCell>
        <mxCell id="ik0_iE2QhQX5W9CxwBGj-123" value="" style="group" vertex="1" connectable="0" parent="1">
          <mxGeometry x="70" y="3" width="50" height="170" as="geometry" />
        </mxCell>
        <mxCell id="ik0_iE2QhQX5W9CxwBGj-124" value="" style="ellipse;whiteSpace=wrap;html=1;aspect=fixed;fillColor=#000000;strokeColor=none;container=0;" vertex="1" parent="ik0_iE2QhQX5W9CxwBGj-123">
          <mxGeometry y="5.1515151515151505" width="0.776255707762557" height="0.776255707762557" as="geometry" />
        </mxCell>
        <mxCell id="ik0_iE2QhQX5W9CxwBGj-125" value="" style="ellipse;whiteSpace=wrap;html=1;aspect=fixed;fillColor=#000000;strokeColor=none;container=0;" vertex="1" parent="ik0_iE2QhQX5W9CxwBGj-123">
          <mxGeometry y="37.77777777777777" width="0.776255707762557" height="0.776255707762557" as="geometry" />
        </mxCell>
        <mxCell id="ik0_iE2QhQX5W9CxwBGj-126" value="" style="ellipse;whiteSpace=wrap;html=1;aspect=fixed;fillColor=#000000;strokeColor=none;container=0;" vertex="1" parent="ik0_iE2QhQX5W9CxwBGj-123">
          <mxGeometry y="73.83838383838382" width="0.776255707762557" height="0.776255707762557" as="geometry" />
        </mxCell>
        <mxCell id="ik0_iE2QhQX5W9CxwBGj-127" value="" style="ellipse;whiteSpace=wrap;html=1;aspect=fixed;fillColor=#000000;strokeColor=none;container=0;" vertex="1" parent="ik0_iE2QhQX5W9CxwBGj-123">
          <mxGeometry y="78.98989898989899" width="0.776255707762557" height="0.776255707762557" as="geometry" />
        </mxCell>
        <mxCell id="ik0_iE2QhQX5W9CxwBGj-128" value="" style="ellipse;whiteSpace=wrap;html=1;aspect=fixed;fillColor=#000000;strokeColor=none;container=0;" vertex="1" parent="ik0_iE2QhQX5W9CxwBGj-123">
          <mxGeometry y="82.42424242424241" width="0.776255707762557" height="0.776255707762557" as="geometry" />
        </mxCell>
        <mxCell id="ik0_iE2QhQX5W9CxwBGj-129" value="" style="ellipse;whiteSpace=wrap;html=1;aspect=fixed;fillColor=#000000;strokeColor=none;container=0;" vertex="1" parent="ik0_iE2QhQX5W9CxwBGj-123">
          <mxGeometry y="87.57575757575758" width="0.776255707762557" height="0.776255707762557" as="geometry" />
        </mxCell>
        <mxCell id="ik0_iE2QhQX5W9CxwBGj-130" value="" style="ellipse;whiteSpace=wrap;html=1;aspect=fixed;fillColor=#000000;strokeColor=none;container=0;" vertex="1" parent="ik0_iE2QhQX5W9CxwBGj-123">
          <mxGeometry y="109.89898989898988" width="0.776255707762557" height="0.776255707762557" as="geometry" />
        </mxCell>
        <mxCell id="ik0_iE2QhQX5W9CxwBGj-131" value="" style="ellipse;whiteSpace=wrap;html=1;aspect=fixed;fillColor=#000000;strokeColor=none;container=0;" vertex="1" parent="ik0_iE2QhQX5W9CxwBGj-123">
          <mxGeometry y="115.05050505050505" width="0.776255707762557" height="0.776255707762557" as="geometry" />
        </mxCell>
        <mxCell id="ik0_iE2QhQX5W9CxwBGj-132" value="" style="ellipse;whiteSpace=wrap;html=1;aspect=fixed;fillColor=#000000;strokeColor=none;container=0;" vertex="1" parent="ik0_iE2QhQX5W9CxwBGj-123">
          <mxGeometry y="120.2020202020202" width="0.776255707762557" height="0.776255707762557" as="geometry" />
        </mxCell>
        <mxCell id="ik0_iE2QhQX5W9CxwBGj-133" value="" style="ellipse;whiteSpace=wrap;html=1;aspect=fixed;fillColor=#000000;strokeColor=none;container=0;" vertex="1" parent="ik0_iE2QhQX5W9CxwBGj-123">
          <mxGeometry y="137.37373737373736" width="0.776255707762557" height="0.776255707762557" as="geometry" />
        </mxCell>
        <mxCell id="ik0_iE2QhQX5W9CxwBGj-134" value="" style="ellipse;whiteSpace=wrap;html=1;aspect=fixed;fillColor=#000000;strokeColor=none;container=0;" vertex="1" parent="ik0_iE2QhQX5W9CxwBGj-123">
          <mxGeometry y="156.26262626262624" width="0.776255707762557" height="0.776255707762557" as="geometry" />
        </mxCell>
        <mxCell id="ik0_iE2QhQX5W9CxwBGj-135" value="" style="ellipse;whiteSpace=wrap;html=1;aspect=fixed;fillColor=#000000;strokeColor=none;container=0;" vertex="1" parent="ik0_iE2QhQX5W9CxwBGj-123">
          <mxGeometry y="161.4141414141414" width="0.776255707762557" height="0.776255707762557" as="geometry" />
        </mxCell>
        <mxCell id="ik0_iE2QhQX5W9CxwBGj-136" value="" style="ellipse;whiteSpace=wrap;html=1;aspect=fixed;fillColor=#000000;strokeColor=none;container=0;" vertex="1" parent="ik0_iE2QhQX5W9CxwBGj-123">
          <mxGeometry y="170" as="geometry" />
        </mxCell>
        <mxCell id="ik0_iE2QhQX5W9CxwBGj-137" value="" style="ellipse;whiteSpace=wrap;html=1;aspect=fixed;fillColor=#000000;strokeColor=none;container=0;" vertex="1" parent="ik0_iE2QhQX5W9CxwBGj-123">
          <mxGeometry width="0.776255707762557" height="0.776255707762557" as="geometry" />
        </mxCell>
        <mxCell id="ik0_iE2QhQX5W9CxwBGj-138" value="" style="ellipse;whiteSpace=wrap;html=1;aspect=fixed;fillColor=#000000;strokeColor=none;container=0;" vertex="1" parent="ik0_iE2QhQX5W9CxwBGj-123">
          <mxGeometry y="13.737373737373735" width="0.776255707762557" height="0.776255707762557" as="geometry" />
        </mxCell>
        <mxCell id="ik0_iE2QhQX5W9CxwBGj-139" value="" style="ellipse;whiteSpace=wrap;html=1;aspect=fixed;fillColor=#000000;strokeColor=none;container=0;" vertex="1" parent="ik0_iE2QhQX5W9CxwBGj-123">
          <mxGeometry y="41.212121212121204" width="0.776255707762557" height="0.776255707762557" as="geometry" />
        </mxCell>
        <mxCell id="ik0_iE2QhQX5W9CxwBGj-140" value="" style="ellipse;whiteSpace=wrap;html=1;aspect=fixed;fillColor=#000000;strokeColor=none;container=0;" vertex="1" parent="ik0_iE2QhQX5W9CxwBGj-123">
          <mxGeometry y="46.36363636363635" width="0.776255707762557" height="0.776255707762557" as="geometry" />
        </mxCell>
        <mxCell id="ik0_iE2QhQX5W9CxwBGj-141" value="" style="ellipse;whiteSpace=wrap;html=1;aspect=fixed;fillColor=#000000;strokeColor=none;container=0;" vertex="1" parent="ik0_iE2QhQX5W9CxwBGj-123">
          <mxGeometry y="51.51515151515151" width="0.776255707762557" height="0.776255707762557" as="geometry" />
        </mxCell>
        <mxCell id="ik0_iE2QhQX5W9CxwBGj-142" value="" style="ellipse;whiteSpace=wrap;html=1;aspect=fixed;fillColor=#000000;strokeColor=none;container=0;" vertex="1" parent="ik0_iE2QhQX5W9CxwBGj-123">
          <mxGeometry y="54.94949494949494" width="0.776255707762557" height="0.776255707762557" as="geometry" />
        </mxCell>
        <mxCell id="ik0_iE2QhQX5W9CxwBGj-143" value="" style="ellipse;whiteSpace=wrap;html=1;aspect=fixed;fillColor=#000000;strokeColor=none;container=0;" vertex="1" parent="ik0_iE2QhQX5W9CxwBGj-123">
          <mxGeometry y="92.7272727272727" width="0.776255707762557" height="0.776255707762557" as="geometry" />
        </mxCell>
        <mxCell id="ik0_iE2QhQX5W9CxwBGj-144" value="" style="ellipse;whiteSpace=wrap;html=1;aspect=fixed;fillColor=#000000;strokeColor=none;container=0;" vertex="1" parent="ik0_iE2QhQX5W9CxwBGj-123">
          <mxGeometry y="96.16161616161614" width="0.776255707762557" height="0.776255707762557" as="geometry" />
        </mxCell>
        <mxCell id="ik0_iE2QhQX5W9CxwBGj-145" value="" style="ellipse;whiteSpace=wrap;html=1;aspect=fixed;fillColor=#000000;strokeColor=none;container=0;" vertex="1" parent="ik0_iE2QhQX5W9CxwBGj-123">
          <mxGeometry y="101.3131313131313" width="0.776255707762557" height="0.776255707762557" as="geometry" />
        </mxCell>
        <mxCell id="ik0_iE2QhQX5W9CxwBGj-146" value="" style="ellipse;whiteSpace=wrap;html=1;aspect=fixed;fillColor=#000000;strokeColor=none;container=0;" vertex="1" parent="ik0_iE2QhQX5W9CxwBGj-123">
          <mxGeometry y="123.63636363636364" width="0.776255707762557" height="0.776255707762557" as="geometry" />
        </mxCell>
        <mxCell id="ik0_iE2QhQX5W9CxwBGj-147" value="" style="ellipse;whiteSpace=wrap;html=1;aspect=fixed;fillColor=#000000;strokeColor=none;container=0;" vertex="1" parent="ik0_iE2QhQX5W9CxwBGj-123">
          <mxGeometry y="142.5252525252525" width="0.776255707762557" height="0.776255707762557" as="geometry" />
        </mxCell>
        <mxCell id="ik0_iE2QhQX5W9CxwBGj-148" value="" style="ellipse;whiteSpace=wrap;html=1;aspect=fixed;fillColor=#000000;strokeColor=none;container=0;" vertex="1" parent="ik0_iE2QhQX5W9CxwBGj-123">
          <mxGeometry y="147.67676767676764" width="0.776255707762557" height="0.776255707762557" as="geometry" />
        </mxCell>
        <mxCell id="ik0_iE2QhQX5W9CxwBGj-149" value="" style="ellipse;whiteSpace=wrap;html=1;aspect=fixed;fillColor=#000000;strokeColor=none;container=0;" vertex="1" parent="ik0_iE2QhQX5W9CxwBGj-123">
          <mxGeometry y="164.84848484848482" width="0.776255707762557" height="0.776255707762557" as="geometry" />
        </mxCell>
        <mxCell id="ik0_iE2QhQX5W9CxwBGj-150" value="" style="ellipse;whiteSpace=wrap;html=1;aspect=fixed;fillColor=#000000;strokeColor=none;container=0;" vertex="1" parent="ik0_iE2QhQX5W9CxwBGj-123">
          <mxGeometry y="10.303030303030301" width="0.776255707762557" height="0.776255707762557" as="geometry" />
        </mxCell>
        <mxCell id="ik0_iE2QhQX5W9CxwBGj-151" value="" style="ellipse;whiteSpace=wrap;html=1;aspect=fixed;fillColor=#000000;strokeColor=none;container=0;" vertex="1" parent="ik0_iE2QhQX5W9CxwBGj-123">
          <mxGeometry y="18.888888888888886" width="0.776255707762557" height="0.776255707762557" as="geometry" />
        </mxCell>
        <mxCell id="ik0_iE2QhQX5W9CxwBGj-152" value="" style="ellipse;whiteSpace=wrap;html=1;aspect=fixed;fillColor=#000000;strokeColor=none;container=0;" vertex="1" parent="ik0_iE2QhQX5W9CxwBGj-123">
          <mxGeometry y="24.040404040404034" width="0.776255707762557" height="0.776255707762557" as="geometry" />
        </mxCell>
        <mxCell id="ik0_iE2QhQX5W9CxwBGj-153" value="" style="ellipse;whiteSpace=wrap;html=1;aspect=fixed;fillColor=#000000;strokeColor=none;container=0;" vertex="1" parent="ik0_iE2QhQX5W9CxwBGj-123">
          <mxGeometry y="27.47474747474747" width="0.776255707762557" height="0.776255707762557" as="geometry" />
        </mxCell>
        <mxCell id="ik0_iE2QhQX5W9CxwBGj-154" value="" style="ellipse;whiteSpace=wrap;html=1;aspect=fixed;fillColor=#000000;strokeColor=none;container=0;" vertex="1" parent="ik0_iE2QhQX5W9CxwBGj-123">
          <mxGeometry y="32.62626262626262" width="0.776255707762557" height="0.776255707762557" as="geometry" />
        </mxCell>
        <mxCell id="ik0_iE2QhQX5W9CxwBGj-155" value="" style="ellipse;whiteSpace=wrap;html=1;aspect=fixed;fillColor=#000000;strokeColor=none;container=0;" vertex="1" parent="ik0_iE2QhQX5W9CxwBGj-123">
          <mxGeometry y="60.1010101010101" width="0.776255707762557" height="0.776255707762557" as="geometry" />
        </mxCell>
        <mxCell id="ik0_iE2QhQX5W9CxwBGj-156" value="" style="ellipse;whiteSpace=wrap;html=1;aspect=fixed;fillColor=#000000;strokeColor=none;container=0;" vertex="1" parent="ik0_iE2QhQX5W9CxwBGj-123">
          <mxGeometry y="65.25252525252525" width="0.776255707762557" height="0.776255707762557" as="geometry" />
        </mxCell>
        <mxCell id="ik0_iE2QhQX5W9CxwBGj-157" value="" style="ellipse;whiteSpace=wrap;html=1;aspect=fixed;fillColor=#000000;strokeColor=none;container=0;" vertex="1" parent="ik0_iE2QhQX5W9CxwBGj-123">
          <mxGeometry y="68.68686868686868" width="0.776255707762557" height="0.776255707762557" as="geometry" />
        </mxCell>
        <mxCell id="ik0_iE2QhQX5W9CxwBGj-158" value="" style="ellipse;whiteSpace=wrap;html=1;aspect=fixed;fillColor=#000000;strokeColor=none;container=0;" vertex="1" parent="ik0_iE2QhQX5W9CxwBGj-123">
          <mxGeometry y="106.46464646464646" width="0.776255707762557" height="0.776255707762557" as="geometry" />
        </mxCell>
        <mxCell id="ik0_iE2QhQX5W9CxwBGj-159" value="" style="ellipse;whiteSpace=wrap;html=1;aspect=fixed;fillColor=#000000;strokeColor=none;container=0;" vertex="1" parent="ik0_iE2QhQX5W9CxwBGj-123">
          <mxGeometry y="128.78787878787878" width="0.776255707762557" height="0.776255707762557" as="geometry" />
        </mxCell>
        <mxCell id="ik0_iE2QhQX5W9CxwBGj-160" value="" style="ellipse;whiteSpace=wrap;html=1;aspect=fixed;fillColor=#000000;strokeColor=none;container=0;" vertex="1" parent="ik0_iE2QhQX5W9CxwBGj-123">
          <mxGeometry y="133.9393939393939" width="0.776255707762557" height="0.776255707762557" as="geometry" />
        </mxCell>
        <mxCell id="ik0_iE2QhQX5W9CxwBGj-161" value="" style="ellipse;whiteSpace=wrap;html=1;aspect=fixed;fillColor=#000000;strokeColor=none;container=0;" vertex="1" parent="ik0_iE2QhQX5W9CxwBGj-123">
          <mxGeometry y="151.1111111111111" width="0.776255707762557" height="0.776255707762557" as="geometry" />
        </mxCell>
        <mxCell id="ik0_iE2QhQX5W9CxwBGj-202" value="" style="group" vertex="1" connectable="0" parent="1">
          <mxGeometry x="130" y="3" width="1" height="170" as="geometry" />
        </mxCell>
        <mxCell id="ik0_iE2QhQX5W9CxwBGj-203" value="" style="ellipse;whiteSpace=wrap;html=1;aspect=fixed;fillColor=#000000;strokeColor=none;container=0;" vertex="1" parent="ik0_iE2QhQX5W9CxwBGj-202">
          <mxGeometry y="5.1515151515151505" width="0.776255707762557" height="0.776255707762557" as="geometry" />
        </mxCell>
        <mxCell id="ik0_iE2QhQX5W9CxwBGj-204" value="" style="ellipse;whiteSpace=wrap;html=1;aspect=fixed;fillColor=#000000;strokeColor=none;container=0;" vertex="1" parent="ik0_iE2QhQX5W9CxwBGj-202">
          <mxGeometry y="37.77777777777777" width="0.776255707762557" height="0.776255707762557" as="geometry" />
        </mxCell>
        <mxCell id="ik0_iE2QhQX5W9CxwBGj-205" value="" style="ellipse;whiteSpace=wrap;html=1;aspect=fixed;fillColor=#000000;strokeColor=none;container=0;" vertex="1" parent="ik0_iE2QhQX5W9CxwBGj-202">
          <mxGeometry y="73.83838383838382" width="0.776255707762557" height="0.776255707762557" as="geometry" />
        </mxCell>
        <mxCell id="ik0_iE2QhQX5W9CxwBGj-206" value="" style="ellipse;whiteSpace=wrap;html=1;aspect=fixed;fillColor=#000000;strokeColor=none;container=0;" vertex="1" parent="ik0_iE2QhQX5W9CxwBGj-202">
          <mxGeometry y="78.98989898989899" width="0.776255707762557" height="0.776255707762557" as="geometry" />
        </mxCell>
        <mxCell id="ik0_iE2QhQX5W9CxwBGj-207" value="" style="ellipse;whiteSpace=wrap;html=1;aspect=fixed;fillColor=#000000;strokeColor=none;container=0;" vertex="1" parent="ik0_iE2QhQX5W9CxwBGj-202">
          <mxGeometry y="82.42424242424241" width="0.776255707762557" height="0.776255707762557" as="geometry" />
        </mxCell>
        <mxCell id="ik0_iE2QhQX5W9CxwBGj-208" value="" style="ellipse;whiteSpace=wrap;html=1;aspect=fixed;fillColor=#000000;strokeColor=none;container=0;" vertex="1" parent="ik0_iE2QhQX5W9CxwBGj-202">
          <mxGeometry y="87.57575757575758" width="0.776255707762557" height="0.776255707762557" as="geometry" />
        </mxCell>
        <mxCell id="ik0_iE2QhQX5W9CxwBGj-209" value="" style="ellipse;whiteSpace=wrap;html=1;aspect=fixed;fillColor=#000000;strokeColor=none;container=0;" vertex="1" parent="ik0_iE2QhQX5W9CxwBGj-202">
          <mxGeometry y="109.89898989898988" width="0.776255707762557" height="0.776255707762557" as="geometry" />
        </mxCell>
        <mxCell id="ik0_iE2QhQX5W9CxwBGj-210" value="" style="ellipse;whiteSpace=wrap;html=1;aspect=fixed;fillColor=#000000;strokeColor=none;container=0;" vertex="1" parent="ik0_iE2QhQX5W9CxwBGj-202">
          <mxGeometry y="115.05050505050505" width="0.776255707762557" height="0.776255707762557" as="geometry" />
        </mxCell>
        <mxCell id="ik0_iE2QhQX5W9CxwBGj-211" value="" style="ellipse;whiteSpace=wrap;html=1;aspect=fixed;fillColor=#000000;strokeColor=none;container=0;" vertex="1" parent="ik0_iE2QhQX5W9CxwBGj-202">
          <mxGeometry y="120.2020202020202" width="0.776255707762557" height="0.776255707762557" as="geometry" />
        </mxCell>
        <mxCell id="ik0_iE2QhQX5W9CxwBGj-212" value="" style="ellipse;whiteSpace=wrap;html=1;aspect=fixed;fillColor=#000000;strokeColor=none;container=0;" vertex="1" parent="ik0_iE2QhQX5W9CxwBGj-202">
          <mxGeometry y="137.37373737373736" width="0.776255707762557" height="0.776255707762557" as="geometry" />
        </mxCell>
        <mxCell id="ik0_iE2QhQX5W9CxwBGj-213" value="" style="ellipse;whiteSpace=wrap;html=1;aspect=fixed;fillColor=#000000;strokeColor=none;container=0;" vertex="1" parent="ik0_iE2QhQX5W9CxwBGj-202">
          <mxGeometry y="156.26262626262624" width="0.776255707762557" height="0.776255707762557" as="geometry" />
        </mxCell>
        <mxCell id="ik0_iE2QhQX5W9CxwBGj-214" value="" style="ellipse;whiteSpace=wrap;html=1;aspect=fixed;fillColor=#000000;strokeColor=none;container=0;" vertex="1" parent="ik0_iE2QhQX5W9CxwBGj-202">
          <mxGeometry y="161.4141414141414" width="0.776255707762557" height="0.776255707762557" as="geometry" />
        </mxCell>
        <mxCell id="ik0_iE2QhQX5W9CxwBGj-215" value="" style="ellipse;whiteSpace=wrap;html=1;aspect=fixed;fillColor=#000000;strokeColor=none;container=0;" vertex="1" parent="ik0_iE2QhQX5W9CxwBGj-202">
          <mxGeometry y="170" as="geometry" />
        </mxCell>
        <mxCell id="ik0_iE2QhQX5W9CxwBGj-216" value="" style="ellipse;whiteSpace=wrap;html=1;aspect=fixed;fillColor=#000000;strokeColor=none;container=0;" vertex="1" parent="ik0_iE2QhQX5W9CxwBGj-202">
          <mxGeometry width="0.776255707762557" height="0.776255707762557" as="geometry" />
        </mxCell>
        <mxCell id="ik0_iE2QhQX5W9CxwBGj-217" value="" style="ellipse;whiteSpace=wrap;html=1;aspect=fixed;fillColor=#000000;strokeColor=none;container=0;" vertex="1" parent="ik0_iE2QhQX5W9CxwBGj-202">
          <mxGeometry y="13.737373737373735" width="0.776255707762557" height="0.776255707762557" as="geometry" />
        </mxCell>
        <mxCell id="ik0_iE2QhQX5W9CxwBGj-218" value="" style="ellipse;whiteSpace=wrap;html=1;aspect=fixed;fillColor=#000000;strokeColor=none;container=0;" vertex="1" parent="ik0_iE2QhQX5W9CxwBGj-202">
          <mxGeometry y="41.212121212121204" width="0.776255707762557" height="0.776255707762557" as="geometry" />
        </mxCell>
        <mxCell id="ik0_iE2QhQX5W9CxwBGj-219" value="" style="ellipse;whiteSpace=wrap;html=1;aspect=fixed;fillColor=#000000;strokeColor=none;container=0;" vertex="1" parent="ik0_iE2QhQX5W9CxwBGj-202">
          <mxGeometry y="46.36363636363635" width="0.776255707762557" height="0.776255707762557" as="geometry" />
        </mxCell>
        <mxCell id="ik0_iE2QhQX5W9CxwBGj-220" value="" style="ellipse;whiteSpace=wrap;html=1;aspect=fixed;fillColor=#000000;strokeColor=none;container=0;" vertex="1" parent="ik0_iE2QhQX5W9CxwBGj-202">
          <mxGeometry y="51.51515151515151" width="0.776255707762557" height="0.776255707762557" as="geometry" />
        </mxCell>
        <mxCell id="ik0_iE2QhQX5W9CxwBGj-221" value="" style="ellipse;whiteSpace=wrap;html=1;aspect=fixed;fillColor=#000000;strokeColor=none;container=0;" vertex="1" parent="ik0_iE2QhQX5W9CxwBGj-202">
          <mxGeometry y="54.94949494949494" width="0.776255707762557" height="0.776255707762557" as="geometry" />
        </mxCell>
        <mxCell id="ik0_iE2QhQX5W9CxwBGj-222" value="" style="ellipse;whiteSpace=wrap;html=1;aspect=fixed;fillColor=#000000;strokeColor=none;container=0;" vertex="1" parent="ik0_iE2QhQX5W9CxwBGj-202">
          <mxGeometry y="92.7272727272727" width="0.776255707762557" height="0.776255707762557" as="geometry" />
        </mxCell>
        <mxCell id="ik0_iE2QhQX5W9CxwBGj-223" value="" style="ellipse;whiteSpace=wrap;html=1;aspect=fixed;fillColor=#000000;strokeColor=none;container=0;" vertex="1" parent="ik0_iE2QhQX5W9CxwBGj-202">
          <mxGeometry y="96.16161616161614" width="0.776255707762557" height="0.776255707762557" as="geometry" />
        </mxCell>
        <mxCell id="ik0_iE2QhQX5W9CxwBGj-224" value="" style="ellipse;whiteSpace=wrap;html=1;aspect=fixed;fillColor=#000000;strokeColor=none;container=0;" vertex="1" parent="ik0_iE2QhQX5W9CxwBGj-202">
          <mxGeometry y="101.3131313131313" width="0.776255707762557" height="0.776255707762557" as="geometry" />
        </mxCell>
        <mxCell id="ik0_iE2QhQX5W9CxwBGj-225" value="" style="ellipse;whiteSpace=wrap;html=1;aspect=fixed;fillColor=#000000;strokeColor=none;container=0;" vertex="1" parent="ik0_iE2QhQX5W9CxwBGj-202">
          <mxGeometry y="123.63636363636364" width="0.776255707762557" height="0.776255707762557" as="geometry" />
        </mxCell>
        <mxCell id="ik0_iE2QhQX5W9CxwBGj-226" value="" style="ellipse;whiteSpace=wrap;html=1;aspect=fixed;fillColor=#000000;strokeColor=none;container=0;" vertex="1" parent="ik0_iE2QhQX5W9CxwBGj-202">
          <mxGeometry y="142.5252525252525" width="0.776255707762557" height="0.776255707762557" as="geometry" />
        </mxCell>
        <mxCell id="ik0_iE2QhQX5W9CxwBGj-227" value="" style="ellipse;whiteSpace=wrap;html=1;aspect=fixed;fillColor=#000000;strokeColor=none;container=0;" vertex="1" parent="ik0_iE2QhQX5W9CxwBGj-202">
          <mxGeometry y="147.67676767676764" width="0.776255707762557" height="0.776255707762557" as="geometry" />
        </mxCell>
        <mxCell id="ik0_iE2QhQX5W9CxwBGj-228" value="" style="ellipse;whiteSpace=wrap;html=1;aspect=fixed;fillColor=#000000;strokeColor=none;container=0;" vertex="1" parent="ik0_iE2QhQX5W9CxwBGj-202">
          <mxGeometry y="164.84848484848482" width="0.776255707762557" height="0.776255707762557" as="geometry" />
        </mxCell>
        <mxCell id="ik0_iE2QhQX5W9CxwBGj-229" value="" style="ellipse;whiteSpace=wrap;html=1;aspect=fixed;fillColor=#000000;strokeColor=none;container=0;" vertex="1" parent="ik0_iE2QhQX5W9CxwBGj-202">
          <mxGeometry y="10.303030303030301" width="0.776255707762557" height="0.776255707762557" as="geometry" />
        </mxCell>
        <mxCell id="ik0_iE2QhQX5W9CxwBGj-230" value="" style="ellipse;whiteSpace=wrap;html=1;aspect=fixed;fillColor=#000000;strokeColor=none;container=0;" vertex="1" parent="ik0_iE2QhQX5W9CxwBGj-202">
          <mxGeometry y="18.888888888888886" width="0.776255707762557" height="0.776255707762557" as="geometry" />
        </mxCell>
        <mxCell id="ik0_iE2QhQX5W9CxwBGj-231" value="" style="ellipse;whiteSpace=wrap;html=1;aspect=fixed;fillColor=#000000;strokeColor=none;container=0;" vertex="1" parent="ik0_iE2QhQX5W9CxwBGj-202">
          <mxGeometry y="24.040404040404034" width="0.776255707762557" height="0.776255707762557" as="geometry" />
        </mxCell>
        <mxCell id="ik0_iE2QhQX5W9CxwBGj-232" value="" style="ellipse;whiteSpace=wrap;html=1;aspect=fixed;fillColor=#000000;strokeColor=none;container=0;" vertex="1" parent="ik0_iE2QhQX5W9CxwBGj-202">
          <mxGeometry y="27.47474747474747" width="0.776255707762557" height="0.776255707762557" as="geometry" />
        </mxCell>
        <mxCell id="ik0_iE2QhQX5W9CxwBGj-233" value="" style="ellipse;whiteSpace=wrap;html=1;aspect=fixed;fillColor=#000000;strokeColor=none;container=0;" vertex="1" parent="ik0_iE2QhQX5W9CxwBGj-202">
          <mxGeometry y="32.62626262626262" width="0.776255707762557" height="0.776255707762557" as="geometry" />
        </mxCell>
        <mxCell id="ik0_iE2QhQX5W9CxwBGj-234" value="" style="ellipse;whiteSpace=wrap;html=1;aspect=fixed;fillColor=#000000;strokeColor=none;container=0;" vertex="1" parent="ik0_iE2QhQX5W9CxwBGj-202">
          <mxGeometry y="60.1010101010101" width="0.776255707762557" height="0.776255707762557" as="geometry" />
        </mxCell>
        <mxCell id="ik0_iE2QhQX5W9CxwBGj-235" value="" style="ellipse;whiteSpace=wrap;html=1;aspect=fixed;fillColor=#000000;strokeColor=none;container=0;" vertex="1" parent="ik0_iE2QhQX5W9CxwBGj-202">
          <mxGeometry y="65.25252525252525" width="0.776255707762557" height="0.776255707762557" as="geometry" />
        </mxCell>
        <mxCell id="ik0_iE2QhQX5W9CxwBGj-236" value="" style="ellipse;whiteSpace=wrap;html=1;aspect=fixed;fillColor=#000000;strokeColor=none;container=0;" vertex="1" parent="ik0_iE2QhQX5W9CxwBGj-202">
          <mxGeometry y="68.68686868686868" width="0.776255707762557" height="0.776255707762557" as="geometry" />
        </mxCell>
        <mxCell id="ik0_iE2QhQX5W9CxwBGj-237" value="" style="ellipse;whiteSpace=wrap;html=1;aspect=fixed;fillColor=#000000;strokeColor=none;container=0;" vertex="1" parent="ik0_iE2QhQX5W9CxwBGj-202">
          <mxGeometry y="106.46464646464646" width="0.776255707762557" height="0.776255707762557" as="geometry" />
        </mxCell>
        <mxCell id="ik0_iE2QhQX5W9CxwBGj-238" value="" style="ellipse;whiteSpace=wrap;html=1;aspect=fixed;fillColor=#000000;strokeColor=none;container=0;" vertex="1" parent="ik0_iE2QhQX5W9CxwBGj-202">
          <mxGeometry y="128.78787878787878" width="0.776255707762557" height="0.776255707762557" as="geometry" />
        </mxCell>
        <mxCell id="ik0_iE2QhQX5W9CxwBGj-239" value="" style="ellipse;whiteSpace=wrap;html=1;aspect=fixed;fillColor=#000000;strokeColor=none;container=0;" vertex="1" parent="ik0_iE2QhQX5W9CxwBGj-202">
          <mxGeometry y="133.9393939393939" width="0.776255707762557" height="0.776255707762557" as="geometry" />
        </mxCell>
        <mxCell id="ik0_iE2QhQX5W9CxwBGj-240" value="" style="ellipse;whiteSpace=wrap;html=1;aspect=fixed;fillColor=#000000;strokeColor=none;container=0;" vertex="1" parent="ik0_iE2QhQX5W9CxwBGj-202">
          <mxGeometry y="151.1111111111111" width="0.776255707762557" height="0.776255707762557" as="geometry" />
        </mxCell>
        <mxCell id="ik0_iE2QhQX5W9CxwBGj-421" value="" style="group" vertex="1" connectable="0" parent="1">
          <mxGeometry x="189" y="3" width="1" height="170" as="geometry" />
        </mxCell>
        <mxCell id="ik0_iE2QhQX5W9CxwBGj-422" value="" style="ellipse;whiteSpace=wrap;html=1;aspect=fixed;fillColor=#000000;strokeColor=none;container=0;" vertex="1" parent="ik0_iE2QhQX5W9CxwBGj-421">
          <mxGeometry y="5.1515151515151505" width="0.776255707762557" height="0.776255707762557" as="geometry" />
        </mxCell>
        <mxCell id="ik0_iE2QhQX5W9CxwBGj-423" value="" style="ellipse;whiteSpace=wrap;html=1;aspect=fixed;fillColor=#000000;strokeColor=none;container=0;" vertex="1" parent="ik0_iE2QhQX5W9CxwBGj-421">
          <mxGeometry y="37.77777777777777" width="0.776255707762557" height="0.776255707762557" as="geometry" />
        </mxCell>
        <mxCell id="ik0_iE2QhQX5W9CxwBGj-424" value="" style="ellipse;whiteSpace=wrap;html=1;aspect=fixed;fillColor=#000000;strokeColor=none;container=0;" vertex="1" parent="ik0_iE2QhQX5W9CxwBGj-421">
          <mxGeometry y="73.83838383838382" width="0.776255707762557" height="0.776255707762557" as="geometry" />
        </mxCell>
        <mxCell id="ik0_iE2QhQX5W9CxwBGj-425" value="" style="ellipse;whiteSpace=wrap;html=1;aspect=fixed;fillColor=#000000;strokeColor=none;container=0;" vertex="1" parent="ik0_iE2QhQX5W9CxwBGj-421">
          <mxGeometry y="78.98989898989899" width="0.776255707762557" height="0.776255707762557" as="geometry" />
        </mxCell>
        <mxCell id="ik0_iE2QhQX5W9CxwBGj-426" value="" style="ellipse;whiteSpace=wrap;html=1;aspect=fixed;fillColor=#000000;strokeColor=none;container=0;" vertex="1" parent="ik0_iE2QhQX5W9CxwBGj-421">
          <mxGeometry y="82.42424242424241" width="0.776255707762557" height="0.776255707762557" as="geometry" />
        </mxCell>
        <mxCell id="ik0_iE2QhQX5W9CxwBGj-427" value="" style="ellipse;whiteSpace=wrap;html=1;aspect=fixed;fillColor=#000000;strokeColor=none;container=0;" vertex="1" parent="ik0_iE2QhQX5W9CxwBGj-421">
          <mxGeometry y="87.57575757575758" width="0.776255707762557" height="0.776255707762557" as="geometry" />
        </mxCell>
        <mxCell id="ik0_iE2QhQX5W9CxwBGj-428" value="" style="ellipse;whiteSpace=wrap;html=1;aspect=fixed;fillColor=#000000;strokeColor=none;container=0;" vertex="1" parent="ik0_iE2QhQX5W9CxwBGj-421">
          <mxGeometry y="109.89898989898988" width="0.776255707762557" height="0.776255707762557" as="geometry" />
        </mxCell>
        <mxCell id="ik0_iE2QhQX5W9CxwBGj-429" value="" style="ellipse;whiteSpace=wrap;html=1;aspect=fixed;fillColor=#000000;strokeColor=none;container=0;" vertex="1" parent="ik0_iE2QhQX5W9CxwBGj-421">
          <mxGeometry y="115.05050505050505" width="0.776255707762557" height="0.776255707762557" as="geometry" />
        </mxCell>
        <mxCell id="ik0_iE2QhQX5W9CxwBGj-430" value="" style="ellipse;whiteSpace=wrap;html=1;aspect=fixed;fillColor=#000000;strokeColor=none;container=0;" vertex="1" parent="ik0_iE2QhQX5W9CxwBGj-421">
          <mxGeometry y="120.2020202020202" width="0.776255707762557" height="0.776255707762557" as="geometry" />
        </mxCell>
        <mxCell id="ik0_iE2QhQX5W9CxwBGj-431" value="" style="ellipse;whiteSpace=wrap;html=1;aspect=fixed;fillColor=#000000;strokeColor=none;container=0;" vertex="1" parent="ik0_iE2QhQX5W9CxwBGj-421">
          <mxGeometry y="137.37373737373736" width="0.776255707762557" height="0.776255707762557" as="geometry" />
        </mxCell>
        <mxCell id="ik0_iE2QhQX5W9CxwBGj-432" value="" style="ellipse;whiteSpace=wrap;html=1;aspect=fixed;fillColor=#000000;strokeColor=none;container=0;" vertex="1" parent="ik0_iE2QhQX5W9CxwBGj-421">
          <mxGeometry y="156.26262626262624" width="0.776255707762557" height="0.776255707762557" as="geometry" />
        </mxCell>
        <mxCell id="ik0_iE2QhQX5W9CxwBGj-433" value="" style="ellipse;whiteSpace=wrap;html=1;aspect=fixed;fillColor=#000000;strokeColor=none;container=0;" vertex="1" parent="ik0_iE2QhQX5W9CxwBGj-421">
          <mxGeometry y="161.4141414141414" width="0.776255707762557" height="0.776255707762557" as="geometry" />
        </mxCell>
        <mxCell id="ik0_iE2QhQX5W9CxwBGj-434" value="" style="ellipse;whiteSpace=wrap;html=1;aspect=fixed;fillColor=#000000;strokeColor=none;container=0;" vertex="1" parent="ik0_iE2QhQX5W9CxwBGj-421">
          <mxGeometry y="170" as="geometry" />
        </mxCell>
        <mxCell id="ik0_iE2QhQX5W9CxwBGj-435" value="" style="ellipse;whiteSpace=wrap;html=1;aspect=fixed;fillColor=#000000;strokeColor=none;container=0;" vertex="1" parent="ik0_iE2QhQX5W9CxwBGj-421">
          <mxGeometry width="0.776255707762557" height="0.776255707762557" as="geometry" />
        </mxCell>
        <mxCell id="ik0_iE2QhQX5W9CxwBGj-436" value="" style="ellipse;whiteSpace=wrap;html=1;aspect=fixed;fillColor=#000000;strokeColor=none;container=0;" vertex="1" parent="ik0_iE2QhQX5W9CxwBGj-421">
          <mxGeometry y="13.737373737373735" width="0.776255707762557" height="0.776255707762557" as="geometry" />
        </mxCell>
        <mxCell id="ik0_iE2QhQX5W9CxwBGj-437" value="" style="ellipse;whiteSpace=wrap;html=1;aspect=fixed;fillColor=#000000;strokeColor=none;container=0;" vertex="1" parent="ik0_iE2QhQX5W9CxwBGj-421">
          <mxGeometry y="41.212121212121204" width="0.776255707762557" height="0.776255707762557" as="geometry" />
        </mxCell>
        <mxCell id="ik0_iE2QhQX5W9CxwBGj-438" value="" style="ellipse;whiteSpace=wrap;html=1;aspect=fixed;fillColor=#000000;strokeColor=none;container=0;" vertex="1" parent="ik0_iE2QhQX5W9CxwBGj-421">
          <mxGeometry y="46.36363636363635" width="0.776255707762557" height="0.776255707762557" as="geometry" />
        </mxCell>
        <mxCell id="ik0_iE2QhQX5W9CxwBGj-439" value="" style="ellipse;whiteSpace=wrap;html=1;aspect=fixed;fillColor=#000000;strokeColor=none;container=0;" vertex="1" parent="ik0_iE2QhQX5W9CxwBGj-421">
          <mxGeometry y="51.51515151515151" width="0.776255707762557" height="0.776255707762557" as="geometry" />
        </mxCell>
        <mxCell id="ik0_iE2QhQX5W9CxwBGj-440" value="" style="ellipse;whiteSpace=wrap;html=1;aspect=fixed;fillColor=#000000;strokeColor=none;container=0;" vertex="1" parent="ik0_iE2QhQX5W9CxwBGj-421">
          <mxGeometry y="54.94949494949494" width="0.776255707762557" height="0.776255707762557" as="geometry" />
        </mxCell>
        <mxCell id="ik0_iE2QhQX5W9CxwBGj-441" value="" style="ellipse;whiteSpace=wrap;html=1;aspect=fixed;fillColor=#000000;strokeColor=none;container=0;" vertex="1" parent="ik0_iE2QhQX5W9CxwBGj-421">
          <mxGeometry y="92.7272727272727" width="0.776255707762557" height="0.776255707762557" as="geometry" />
        </mxCell>
        <mxCell id="ik0_iE2QhQX5W9CxwBGj-442" value="" style="ellipse;whiteSpace=wrap;html=1;aspect=fixed;fillColor=#000000;strokeColor=none;container=0;" vertex="1" parent="ik0_iE2QhQX5W9CxwBGj-421">
          <mxGeometry y="96.16161616161614" width="0.776255707762557" height="0.776255707762557" as="geometry" />
        </mxCell>
        <mxCell id="ik0_iE2QhQX5W9CxwBGj-443" value="" style="ellipse;whiteSpace=wrap;html=1;aspect=fixed;fillColor=#000000;strokeColor=none;container=0;" vertex="1" parent="ik0_iE2QhQX5W9CxwBGj-421">
          <mxGeometry y="101.3131313131313" width="0.776255707762557" height="0.776255707762557" as="geometry" />
        </mxCell>
        <mxCell id="ik0_iE2QhQX5W9CxwBGj-444" value="" style="ellipse;whiteSpace=wrap;html=1;aspect=fixed;fillColor=#000000;strokeColor=none;container=0;" vertex="1" parent="ik0_iE2QhQX5W9CxwBGj-421">
          <mxGeometry y="123.63636363636364" width="0.776255707762557" height="0.776255707762557" as="geometry" />
        </mxCell>
        <mxCell id="ik0_iE2QhQX5W9CxwBGj-445" value="" style="ellipse;whiteSpace=wrap;html=1;aspect=fixed;fillColor=#000000;strokeColor=none;container=0;" vertex="1" parent="ik0_iE2QhQX5W9CxwBGj-421">
          <mxGeometry y="142.5252525252525" width="0.776255707762557" height="0.776255707762557" as="geometry" />
        </mxCell>
        <mxCell id="ik0_iE2QhQX5W9CxwBGj-446" value="" style="ellipse;whiteSpace=wrap;html=1;aspect=fixed;fillColor=#000000;strokeColor=none;container=0;" vertex="1" parent="ik0_iE2QhQX5W9CxwBGj-421">
          <mxGeometry y="147.67676767676764" width="0.776255707762557" height="0.776255707762557" as="geometry" />
        </mxCell>
        <mxCell id="ik0_iE2QhQX5W9CxwBGj-447" value="" style="ellipse;whiteSpace=wrap;html=1;aspect=fixed;fillColor=#000000;strokeColor=none;container=0;" vertex="1" parent="ik0_iE2QhQX5W9CxwBGj-421">
          <mxGeometry y="164.84848484848482" width="0.776255707762557" height="0.776255707762557" as="geometry" />
        </mxCell>
        <mxCell id="ik0_iE2QhQX5W9CxwBGj-448" value="" style="ellipse;whiteSpace=wrap;html=1;aspect=fixed;fillColor=#000000;strokeColor=none;container=0;" vertex="1" parent="ik0_iE2QhQX5W9CxwBGj-421">
          <mxGeometry y="10.303030303030301" width="0.776255707762557" height="0.776255707762557" as="geometry" />
        </mxCell>
        <mxCell id="ik0_iE2QhQX5W9CxwBGj-449" value="" style="ellipse;whiteSpace=wrap;html=1;aspect=fixed;fillColor=#000000;strokeColor=none;container=0;" vertex="1" parent="ik0_iE2QhQX5W9CxwBGj-421">
          <mxGeometry y="18.888888888888886" width="0.776255707762557" height="0.776255707762557" as="geometry" />
        </mxCell>
        <mxCell id="ik0_iE2QhQX5W9CxwBGj-450" value="" style="ellipse;whiteSpace=wrap;html=1;aspect=fixed;fillColor=#000000;strokeColor=none;container=0;" vertex="1" parent="ik0_iE2QhQX5W9CxwBGj-421">
          <mxGeometry y="24.040404040404034" width="0.776255707762557" height="0.776255707762557" as="geometry" />
        </mxCell>
        <mxCell id="ik0_iE2QhQX5W9CxwBGj-451" value="" style="ellipse;whiteSpace=wrap;html=1;aspect=fixed;fillColor=#000000;strokeColor=none;container=0;" vertex="1" parent="ik0_iE2QhQX5W9CxwBGj-421">
          <mxGeometry y="27.47474747474747" width="0.776255707762557" height="0.776255707762557" as="geometry" />
        </mxCell>
        <mxCell id="ik0_iE2QhQX5W9CxwBGj-452" value="" style="ellipse;whiteSpace=wrap;html=1;aspect=fixed;fillColor=#000000;strokeColor=none;container=0;" vertex="1" parent="ik0_iE2QhQX5W9CxwBGj-421">
          <mxGeometry y="32.62626262626262" width="0.776255707762557" height="0.776255707762557" as="geometry" />
        </mxCell>
        <mxCell id="ik0_iE2QhQX5W9CxwBGj-453" value="" style="ellipse;whiteSpace=wrap;html=1;aspect=fixed;fillColor=#000000;strokeColor=none;container=0;" vertex="1" parent="ik0_iE2QhQX5W9CxwBGj-421">
          <mxGeometry y="60.1010101010101" width="0.776255707762557" height="0.776255707762557" as="geometry" />
        </mxCell>
        <mxCell id="ik0_iE2QhQX5W9CxwBGj-454" value="" style="ellipse;whiteSpace=wrap;html=1;aspect=fixed;fillColor=#000000;strokeColor=none;container=0;" vertex="1" parent="ik0_iE2QhQX5W9CxwBGj-421">
          <mxGeometry y="65.25252525252525" width="0.776255707762557" height="0.776255707762557" as="geometry" />
        </mxCell>
        <mxCell id="ik0_iE2QhQX5W9CxwBGj-455" value="" style="ellipse;whiteSpace=wrap;html=1;aspect=fixed;fillColor=#000000;strokeColor=none;container=0;" vertex="1" parent="ik0_iE2QhQX5W9CxwBGj-421">
          <mxGeometry y="68.68686868686868" width="0.776255707762557" height="0.776255707762557" as="geometry" />
        </mxCell>
        <mxCell id="ik0_iE2QhQX5W9CxwBGj-456" value="" style="ellipse;whiteSpace=wrap;html=1;aspect=fixed;fillColor=#000000;strokeColor=none;container=0;" vertex="1" parent="ik0_iE2QhQX5W9CxwBGj-421">
          <mxGeometry y="106.46464646464646" width="0.776255707762557" height="0.776255707762557" as="geometry" />
        </mxCell>
        <mxCell id="ik0_iE2QhQX5W9CxwBGj-457" value="" style="ellipse;whiteSpace=wrap;html=1;aspect=fixed;fillColor=#000000;strokeColor=none;container=0;" vertex="1" parent="ik0_iE2QhQX5W9CxwBGj-421">
          <mxGeometry y="128.78787878787878" width="0.776255707762557" height="0.776255707762557" as="geometry" />
        </mxCell>
        <mxCell id="ik0_iE2QhQX5W9CxwBGj-458" value="" style="ellipse;whiteSpace=wrap;html=1;aspect=fixed;fillColor=#000000;strokeColor=none;container=0;" vertex="1" parent="ik0_iE2QhQX5W9CxwBGj-421">
          <mxGeometry y="133.9393939393939" width="0.776255707762557" height="0.776255707762557" as="geometry" />
        </mxCell>
        <mxCell id="ik0_iE2QhQX5W9CxwBGj-459" value="" style="ellipse;whiteSpace=wrap;html=1;aspect=fixed;fillColor=#000000;strokeColor=none;container=0;" vertex="1" parent="ik0_iE2QhQX5W9CxwBGj-421">
          <mxGeometry y="151.1111111111111" width="0.776255707762557" height="0.776255707762557" as="geometry" />
        </mxCell>
        <mxCell id="ik0_iE2QhQX5W9CxwBGj-460" value="" style="group" vertex="1" connectable="0" parent="1">
          <mxGeometry x="249" y="3" width="1" height="170" as="geometry" />
        </mxCell>
        <mxCell id="ik0_iE2QhQX5W9CxwBGj-461" value="" style="ellipse;whiteSpace=wrap;html=1;aspect=fixed;fillColor=#000000;strokeColor=none;container=0;" vertex="1" parent="ik0_iE2QhQX5W9CxwBGj-460">
          <mxGeometry y="5.1515151515151505" width="0.776255707762557" height="0.776255707762557" as="geometry" />
        </mxCell>
        <mxCell id="ik0_iE2QhQX5W9CxwBGj-462" value="" style="ellipse;whiteSpace=wrap;html=1;aspect=fixed;fillColor=#000000;strokeColor=none;container=0;" vertex="1" parent="ik0_iE2QhQX5W9CxwBGj-460">
          <mxGeometry y="37.77777777777777" width="0.776255707762557" height="0.776255707762557" as="geometry" />
        </mxCell>
        <mxCell id="ik0_iE2QhQX5W9CxwBGj-463" value="" style="ellipse;whiteSpace=wrap;html=1;aspect=fixed;fillColor=#000000;strokeColor=none;container=0;" vertex="1" parent="ik0_iE2QhQX5W9CxwBGj-460">
          <mxGeometry y="73.83838383838382" width="0.776255707762557" height="0.776255707762557" as="geometry" />
        </mxCell>
        <mxCell id="ik0_iE2QhQX5W9CxwBGj-464" value="" style="ellipse;whiteSpace=wrap;html=1;aspect=fixed;fillColor=#000000;strokeColor=none;container=0;" vertex="1" parent="ik0_iE2QhQX5W9CxwBGj-460">
          <mxGeometry y="78.98989898989899" width="0.776255707762557" height="0.776255707762557" as="geometry" />
        </mxCell>
        <mxCell id="ik0_iE2QhQX5W9CxwBGj-465" value="" style="ellipse;whiteSpace=wrap;html=1;aspect=fixed;fillColor=#000000;strokeColor=none;container=0;" vertex="1" parent="ik0_iE2QhQX5W9CxwBGj-460">
          <mxGeometry y="82.42424242424241" width="0.776255707762557" height="0.776255707762557" as="geometry" />
        </mxCell>
        <mxCell id="ik0_iE2QhQX5W9CxwBGj-466" value="" style="ellipse;whiteSpace=wrap;html=1;aspect=fixed;fillColor=#000000;strokeColor=none;container=0;" vertex="1" parent="ik0_iE2QhQX5W9CxwBGj-460">
          <mxGeometry y="87.57575757575758" width="0.776255707762557" height="0.776255707762557" as="geometry" />
        </mxCell>
        <mxCell id="ik0_iE2QhQX5W9CxwBGj-467" value="" style="ellipse;whiteSpace=wrap;html=1;aspect=fixed;fillColor=#000000;strokeColor=none;container=0;" vertex="1" parent="ik0_iE2QhQX5W9CxwBGj-460">
          <mxGeometry y="109.89898989898988" width="0.776255707762557" height="0.776255707762557" as="geometry" />
        </mxCell>
        <mxCell id="ik0_iE2QhQX5W9CxwBGj-468" value="" style="ellipse;whiteSpace=wrap;html=1;aspect=fixed;fillColor=#000000;strokeColor=none;container=0;" vertex="1" parent="ik0_iE2QhQX5W9CxwBGj-460">
          <mxGeometry y="115.05050505050505" width="0.776255707762557" height="0.776255707762557" as="geometry" />
        </mxCell>
        <mxCell id="ik0_iE2QhQX5W9CxwBGj-469" value="" style="ellipse;whiteSpace=wrap;html=1;aspect=fixed;fillColor=#000000;strokeColor=none;container=0;" vertex="1" parent="ik0_iE2QhQX5W9CxwBGj-460">
          <mxGeometry y="120.2020202020202" width="0.776255707762557" height="0.776255707762557" as="geometry" />
        </mxCell>
        <mxCell id="ik0_iE2QhQX5W9CxwBGj-470" value="" style="ellipse;whiteSpace=wrap;html=1;aspect=fixed;fillColor=#000000;strokeColor=none;container=0;" vertex="1" parent="ik0_iE2QhQX5W9CxwBGj-460">
          <mxGeometry y="137.37373737373736" width="0.776255707762557" height="0.776255707762557" as="geometry" />
        </mxCell>
        <mxCell id="ik0_iE2QhQX5W9CxwBGj-471" value="" style="ellipse;whiteSpace=wrap;html=1;aspect=fixed;fillColor=#000000;strokeColor=none;container=0;" vertex="1" parent="ik0_iE2QhQX5W9CxwBGj-460">
          <mxGeometry y="156.26262626262624" width="0.776255707762557" height="0.776255707762557" as="geometry" />
        </mxCell>
        <mxCell id="ik0_iE2QhQX5W9CxwBGj-472" value="" style="ellipse;whiteSpace=wrap;html=1;aspect=fixed;fillColor=#000000;strokeColor=none;container=0;" vertex="1" parent="ik0_iE2QhQX5W9CxwBGj-460">
          <mxGeometry y="161.4141414141414" width="0.776255707762557" height="0.776255707762557" as="geometry" />
        </mxCell>
        <mxCell id="ik0_iE2QhQX5W9CxwBGj-473" value="" style="ellipse;whiteSpace=wrap;html=1;aspect=fixed;fillColor=#000000;strokeColor=none;container=0;" vertex="1" parent="ik0_iE2QhQX5W9CxwBGj-460">
          <mxGeometry y="170" as="geometry" />
        </mxCell>
        <mxCell id="ik0_iE2QhQX5W9CxwBGj-474" value="" style="ellipse;whiteSpace=wrap;html=1;aspect=fixed;fillColor=#000000;strokeColor=none;container=0;" vertex="1" parent="ik0_iE2QhQX5W9CxwBGj-460">
          <mxGeometry width="0.776255707762557" height="0.776255707762557" as="geometry" />
        </mxCell>
        <mxCell id="ik0_iE2QhQX5W9CxwBGj-475" value="" style="ellipse;whiteSpace=wrap;html=1;aspect=fixed;fillColor=#000000;strokeColor=none;container=0;" vertex="1" parent="ik0_iE2QhQX5W9CxwBGj-460">
          <mxGeometry y="13.737373737373735" width="0.776255707762557" height="0.776255707762557" as="geometry" />
        </mxCell>
        <mxCell id="ik0_iE2QhQX5W9CxwBGj-476" value="" style="ellipse;whiteSpace=wrap;html=1;aspect=fixed;fillColor=#000000;strokeColor=none;container=0;" vertex="1" parent="ik0_iE2QhQX5W9CxwBGj-460">
          <mxGeometry y="41.212121212121204" width="0.776255707762557" height="0.776255707762557" as="geometry" />
        </mxCell>
        <mxCell id="ik0_iE2QhQX5W9CxwBGj-477" value="" style="ellipse;whiteSpace=wrap;html=1;aspect=fixed;fillColor=#000000;strokeColor=none;container=0;" vertex="1" parent="ik0_iE2QhQX5W9CxwBGj-460">
          <mxGeometry y="46.36363636363635" width="0.776255707762557" height="0.776255707762557" as="geometry" />
        </mxCell>
        <mxCell id="ik0_iE2QhQX5W9CxwBGj-478" value="" style="ellipse;whiteSpace=wrap;html=1;aspect=fixed;fillColor=#000000;strokeColor=none;container=0;" vertex="1" parent="ik0_iE2QhQX5W9CxwBGj-460">
          <mxGeometry y="51.51515151515151" width="0.776255707762557" height="0.776255707762557" as="geometry" />
        </mxCell>
        <mxCell id="ik0_iE2QhQX5W9CxwBGj-479" value="" style="ellipse;whiteSpace=wrap;html=1;aspect=fixed;fillColor=#000000;strokeColor=none;container=0;" vertex="1" parent="ik0_iE2QhQX5W9CxwBGj-460">
          <mxGeometry y="54.94949494949494" width="0.776255707762557" height="0.776255707762557" as="geometry" />
        </mxCell>
        <mxCell id="ik0_iE2QhQX5W9CxwBGj-480" value="" style="ellipse;whiteSpace=wrap;html=1;aspect=fixed;fillColor=#000000;strokeColor=none;container=0;" vertex="1" parent="ik0_iE2QhQX5W9CxwBGj-460">
          <mxGeometry y="92.7272727272727" width="0.776255707762557" height="0.776255707762557" as="geometry" />
        </mxCell>
        <mxCell id="ik0_iE2QhQX5W9CxwBGj-481" value="" style="ellipse;whiteSpace=wrap;html=1;aspect=fixed;fillColor=#000000;strokeColor=none;container=0;" vertex="1" parent="ik0_iE2QhQX5W9CxwBGj-460">
          <mxGeometry y="96.16161616161614" width="0.776255707762557" height="0.776255707762557" as="geometry" />
        </mxCell>
        <mxCell id="ik0_iE2QhQX5W9CxwBGj-482" value="" style="ellipse;whiteSpace=wrap;html=1;aspect=fixed;fillColor=#000000;strokeColor=none;container=0;" vertex="1" parent="ik0_iE2QhQX5W9CxwBGj-460">
          <mxGeometry y="101.3131313131313" width="0.776255707762557" height="0.776255707762557" as="geometry" />
        </mxCell>
        <mxCell id="ik0_iE2QhQX5W9CxwBGj-483" value="" style="ellipse;whiteSpace=wrap;html=1;aspect=fixed;fillColor=#000000;strokeColor=none;container=0;" vertex="1" parent="ik0_iE2QhQX5W9CxwBGj-460">
          <mxGeometry y="123.63636363636364" width="0.776255707762557" height="0.776255707762557" as="geometry" />
        </mxCell>
        <mxCell id="ik0_iE2QhQX5W9CxwBGj-484" value="" style="ellipse;whiteSpace=wrap;html=1;aspect=fixed;fillColor=#000000;strokeColor=none;container=0;" vertex="1" parent="ik0_iE2QhQX5W9CxwBGj-460">
          <mxGeometry y="142.5252525252525" width="0.776255707762557" height="0.776255707762557" as="geometry" />
        </mxCell>
        <mxCell id="ik0_iE2QhQX5W9CxwBGj-485" value="" style="ellipse;whiteSpace=wrap;html=1;aspect=fixed;fillColor=#000000;strokeColor=none;container=0;" vertex="1" parent="ik0_iE2QhQX5W9CxwBGj-460">
          <mxGeometry y="147.67676767676764" width="0.776255707762557" height="0.776255707762557" as="geometry" />
        </mxCell>
        <mxCell id="ik0_iE2QhQX5W9CxwBGj-486" value="" style="ellipse;whiteSpace=wrap;html=1;aspect=fixed;fillColor=#000000;strokeColor=none;container=0;" vertex="1" parent="ik0_iE2QhQX5W9CxwBGj-460">
          <mxGeometry y="164.84848484848482" width="0.776255707762557" height="0.776255707762557" as="geometry" />
        </mxCell>
        <mxCell id="ik0_iE2QhQX5W9CxwBGj-487" value="" style="ellipse;whiteSpace=wrap;html=1;aspect=fixed;fillColor=#000000;strokeColor=none;container=0;" vertex="1" parent="ik0_iE2QhQX5W9CxwBGj-460">
          <mxGeometry y="10.303030303030301" width="0.776255707762557" height="0.776255707762557" as="geometry" />
        </mxCell>
        <mxCell id="ik0_iE2QhQX5W9CxwBGj-488" value="" style="ellipse;whiteSpace=wrap;html=1;aspect=fixed;fillColor=#000000;strokeColor=none;container=0;" vertex="1" parent="ik0_iE2QhQX5W9CxwBGj-460">
          <mxGeometry y="18.888888888888886" width="0.776255707762557" height="0.776255707762557" as="geometry" />
        </mxCell>
        <mxCell id="ik0_iE2QhQX5W9CxwBGj-489" value="" style="ellipse;whiteSpace=wrap;html=1;aspect=fixed;fillColor=#000000;strokeColor=none;container=0;" vertex="1" parent="ik0_iE2QhQX5W9CxwBGj-460">
          <mxGeometry y="24.040404040404034" width="0.776255707762557" height="0.776255707762557" as="geometry" />
        </mxCell>
        <mxCell id="ik0_iE2QhQX5W9CxwBGj-490" value="" style="ellipse;whiteSpace=wrap;html=1;aspect=fixed;fillColor=#000000;strokeColor=none;container=0;" vertex="1" parent="ik0_iE2QhQX5W9CxwBGj-460">
          <mxGeometry y="27.47474747474747" width="0.776255707762557" height="0.776255707762557" as="geometry" />
        </mxCell>
        <mxCell id="ik0_iE2QhQX5W9CxwBGj-491" value="" style="ellipse;whiteSpace=wrap;html=1;aspect=fixed;fillColor=#000000;strokeColor=none;container=0;" vertex="1" parent="ik0_iE2QhQX5W9CxwBGj-460">
          <mxGeometry y="32.62626262626262" width="0.776255707762557" height="0.776255707762557" as="geometry" />
        </mxCell>
        <mxCell id="ik0_iE2QhQX5W9CxwBGj-492" value="" style="ellipse;whiteSpace=wrap;html=1;aspect=fixed;fillColor=#000000;strokeColor=none;container=0;" vertex="1" parent="ik0_iE2QhQX5W9CxwBGj-460">
          <mxGeometry y="60.1010101010101" width="0.776255707762557" height="0.776255707762557" as="geometry" />
        </mxCell>
        <mxCell id="ik0_iE2QhQX5W9CxwBGj-493" value="" style="ellipse;whiteSpace=wrap;html=1;aspect=fixed;fillColor=#000000;strokeColor=none;container=0;" vertex="1" parent="ik0_iE2QhQX5W9CxwBGj-460">
          <mxGeometry y="65.25252525252525" width="0.776255707762557" height="0.776255707762557" as="geometry" />
        </mxCell>
        <mxCell id="ik0_iE2QhQX5W9CxwBGj-494" value="" style="ellipse;whiteSpace=wrap;html=1;aspect=fixed;fillColor=#000000;strokeColor=none;container=0;" vertex="1" parent="ik0_iE2QhQX5W9CxwBGj-460">
          <mxGeometry y="68.68686868686868" width="0.776255707762557" height="0.776255707762557" as="geometry" />
        </mxCell>
        <mxCell id="ik0_iE2QhQX5W9CxwBGj-495" value="" style="ellipse;whiteSpace=wrap;html=1;aspect=fixed;fillColor=#000000;strokeColor=none;container=0;" vertex="1" parent="ik0_iE2QhQX5W9CxwBGj-460">
          <mxGeometry y="106.46464646464646" width="0.776255707762557" height="0.776255707762557" as="geometry" />
        </mxCell>
        <mxCell id="ik0_iE2QhQX5W9CxwBGj-496" value="" style="ellipse;whiteSpace=wrap;html=1;aspect=fixed;fillColor=#000000;strokeColor=none;container=0;" vertex="1" parent="ik0_iE2QhQX5W9CxwBGj-460">
          <mxGeometry y="128.78787878787878" width="0.776255707762557" height="0.776255707762557" as="geometry" />
        </mxCell>
        <mxCell id="ik0_iE2QhQX5W9CxwBGj-497" value="" style="ellipse;whiteSpace=wrap;html=1;aspect=fixed;fillColor=#000000;strokeColor=none;container=0;" vertex="1" parent="ik0_iE2QhQX5W9CxwBGj-460">
          <mxGeometry y="133.9393939393939" width="0.776255707762557" height="0.776255707762557" as="geometry" />
        </mxCell>
        <mxCell id="ik0_iE2QhQX5W9CxwBGj-498" value="" style="ellipse;whiteSpace=wrap;html=1;aspect=fixed;fillColor=#000000;strokeColor=none;container=0;" vertex="1" parent="ik0_iE2QhQX5W9CxwBGj-460">
          <mxGeometry y="151.1111111111111" width="0.776255707762557" height="0.776255707762557" as="geometry" />
        </mxCell>
        <mxCell id="ik0_iE2QhQX5W9CxwBGj-499" value="" style="group" vertex="1" connectable="0" parent="1">
          <mxGeometry x="369" y="3" width="1" height="170" as="geometry" />
        </mxCell>
        <mxCell id="ik0_iE2QhQX5W9CxwBGj-500" value="" style="ellipse;whiteSpace=wrap;html=1;aspect=fixed;fillColor=#000000;strokeColor=none;container=0;" vertex="1" parent="ik0_iE2QhQX5W9CxwBGj-499">
          <mxGeometry y="5.1515151515151505" width="0.776255707762557" height="0.776255707762557" as="geometry" />
        </mxCell>
        <mxCell id="ik0_iE2QhQX5W9CxwBGj-501" value="" style="ellipse;whiteSpace=wrap;html=1;aspect=fixed;fillColor=#000000;strokeColor=none;container=0;" vertex="1" parent="ik0_iE2QhQX5W9CxwBGj-499">
          <mxGeometry y="37.77777777777777" width="0.776255707762557" height="0.776255707762557" as="geometry" />
        </mxCell>
        <mxCell id="ik0_iE2QhQX5W9CxwBGj-502" value="" style="ellipse;whiteSpace=wrap;html=1;aspect=fixed;fillColor=#000000;strokeColor=none;container=0;" vertex="1" parent="ik0_iE2QhQX5W9CxwBGj-499">
          <mxGeometry y="73.83838383838382" width="0.776255707762557" height="0.776255707762557" as="geometry" />
        </mxCell>
        <mxCell id="ik0_iE2QhQX5W9CxwBGj-503" value="" style="ellipse;whiteSpace=wrap;html=1;aspect=fixed;fillColor=#000000;strokeColor=none;container=0;" vertex="1" parent="ik0_iE2QhQX5W9CxwBGj-499">
          <mxGeometry y="78.98989898989899" width="0.776255707762557" height="0.776255707762557" as="geometry" />
        </mxCell>
        <mxCell id="ik0_iE2QhQX5W9CxwBGj-504" value="" style="ellipse;whiteSpace=wrap;html=1;aspect=fixed;fillColor=#000000;strokeColor=none;container=0;" vertex="1" parent="ik0_iE2QhQX5W9CxwBGj-499">
          <mxGeometry y="82.42424242424241" width="0.776255707762557" height="0.776255707762557" as="geometry" />
        </mxCell>
        <mxCell id="ik0_iE2QhQX5W9CxwBGj-505" value="" style="ellipse;whiteSpace=wrap;html=1;aspect=fixed;fillColor=#000000;strokeColor=none;container=0;" vertex="1" parent="ik0_iE2QhQX5W9CxwBGj-499">
          <mxGeometry y="87.57575757575758" width="0.776255707762557" height="0.776255707762557" as="geometry" />
        </mxCell>
        <mxCell id="ik0_iE2QhQX5W9CxwBGj-506" value="" style="ellipse;whiteSpace=wrap;html=1;aspect=fixed;fillColor=#000000;strokeColor=none;container=0;" vertex="1" parent="ik0_iE2QhQX5W9CxwBGj-499">
          <mxGeometry y="109.89898989898988" width="0.776255707762557" height="0.776255707762557" as="geometry" />
        </mxCell>
        <mxCell id="ik0_iE2QhQX5W9CxwBGj-507" value="" style="ellipse;whiteSpace=wrap;html=1;aspect=fixed;fillColor=#000000;strokeColor=none;container=0;" vertex="1" parent="ik0_iE2QhQX5W9CxwBGj-499">
          <mxGeometry y="115.05050505050505" width="0.776255707762557" height="0.776255707762557" as="geometry" />
        </mxCell>
        <mxCell id="ik0_iE2QhQX5W9CxwBGj-508" value="" style="ellipse;whiteSpace=wrap;html=1;aspect=fixed;fillColor=#000000;strokeColor=none;container=0;" vertex="1" parent="ik0_iE2QhQX5W9CxwBGj-499">
          <mxGeometry y="120.2020202020202" width="0.776255707762557" height="0.776255707762557" as="geometry" />
        </mxCell>
        <mxCell id="ik0_iE2QhQX5W9CxwBGj-509" value="" style="ellipse;whiteSpace=wrap;html=1;aspect=fixed;fillColor=#000000;strokeColor=none;container=0;" vertex="1" parent="ik0_iE2QhQX5W9CxwBGj-499">
          <mxGeometry y="137.37373737373736" width="0.776255707762557" height="0.776255707762557" as="geometry" />
        </mxCell>
        <mxCell id="ik0_iE2QhQX5W9CxwBGj-510" value="" style="ellipse;whiteSpace=wrap;html=1;aspect=fixed;fillColor=#000000;strokeColor=none;container=0;" vertex="1" parent="ik0_iE2QhQX5W9CxwBGj-499">
          <mxGeometry y="156.26262626262624" width="0.776255707762557" height="0.776255707762557" as="geometry" />
        </mxCell>
        <mxCell id="ik0_iE2QhQX5W9CxwBGj-511" value="" style="ellipse;whiteSpace=wrap;html=1;aspect=fixed;fillColor=#000000;strokeColor=none;container=0;" vertex="1" parent="ik0_iE2QhQX5W9CxwBGj-499">
          <mxGeometry y="161.4141414141414" width="0.776255707762557" height="0.776255707762557" as="geometry" />
        </mxCell>
        <mxCell id="ik0_iE2QhQX5W9CxwBGj-512" value="" style="ellipse;whiteSpace=wrap;html=1;aspect=fixed;fillColor=#000000;strokeColor=none;container=0;" vertex="1" parent="ik0_iE2QhQX5W9CxwBGj-499">
          <mxGeometry y="170" as="geometry" />
        </mxCell>
        <mxCell id="ik0_iE2QhQX5W9CxwBGj-513" value="" style="ellipse;whiteSpace=wrap;html=1;aspect=fixed;fillColor=#000000;strokeColor=none;container=0;" vertex="1" parent="ik0_iE2QhQX5W9CxwBGj-499">
          <mxGeometry width="0.776255707762557" height="0.776255707762557" as="geometry" />
        </mxCell>
        <mxCell id="ik0_iE2QhQX5W9CxwBGj-514" value="" style="ellipse;whiteSpace=wrap;html=1;aspect=fixed;fillColor=#000000;strokeColor=none;container=0;" vertex="1" parent="ik0_iE2QhQX5W9CxwBGj-499">
          <mxGeometry y="13.737373737373735" width="0.776255707762557" height="0.776255707762557" as="geometry" />
        </mxCell>
        <mxCell id="ik0_iE2QhQX5W9CxwBGj-515" value="" style="ellipse;whiteSpace=wrap;html=1;aspect=fixed;fillColor=#000000;strokeColor=none;container=0;" vertex="1" parent="ik0_iE2QhQX5W9CxwBGj-499">
          <mxGeometry y="41.212121212121204" width="0.776255707762557" height="0.776255707762557" as="geometry" />
        </mxCell>
        <mxCell id="ik0_iE2QhQX5W9CxwBGj-516" value="" style="ellipse;whiteSpace=wrap;html=1;aspect=fixed;fillColor=#000000;strokeColor=none;container=0;" vertex="1" parent="ik0_iE2QhQX5W9CxwBGj-499">
          <mxGeometry y="46.36363636363635" width="0.776255707762557" height="0.776255707762557" as="geometry" />
        </mxCell>
        <mxCell id="ik0_iE2QhQX5W9CxwBGj-517" value="" style="ellipse;whiteSpace=wrap;html=1;aspect=fixed;fillColor=#000000;strokeColor=none;container=0;" vertex="1" parent="ik0_iE2QhQX5W9CxwBGj-499">
          <mxGeometry y="51.51515151515151" width="0.776255707762557" height="0.776255707762557" as="geometry" />
        </mxCell>
        <mxCell id="ik0_iE2QhQX5W9CxwBGj-518" value="" style="ellipse;whiteSpace=wrap;html=1;aspect=fixed;fillColor=#000000;strokeColor=none;container=0;" vertex="1" parent="ik0_iE2QhQX5W9CxwBGj-499">
          <mxGeometry y="54.94949494949494" width="0.776255707762557" height="0.776255707762557" as="geometry" />
        </mxCell>
        <mxCell id="ik0_iE2QhQX5W9CxwBGj-519" value="" style="ellipse;whiteSpace=wrap;html=1;aspect=fixed;fillColor=#000000;strokeColor=none;container=0;" vertex="1" parent="ik0_iE2QhQX5W9CxwBGj-499">
          <mxGeometry y="92.7272727272727" width="0.776255707762557" height="0.776255707762557" as="geometry" />
        </mxCell>
        <mxCell id="ik0_iE2QhQX5W9CxwBGj-520" value="" style="ellipse;whiteSpace=wrap;html=1;aspect=fixed;fillColor=#000000;strokeColor=none;container=0;" vertex="1" parent="ik0_iE2QhQX5W9CxwBGj-499">
          <mxGeometry y="96.16161616161614" width="0.776255707762557" height="0.776255707762557" as="geometry" />
        </mxCell>
        <mxCell id="ik0_iE2QhQX5W9CxwBGj-521" value="" style="ellipse;whiteSpace=wrap;html=1;aspect=fixed;fillColor=#000000;strokeColor=none;container=0;" vertex="1" parent="ik0_iE2QhQX5W9CxwBGj-499">
          <mxGeometry y="101.3131313131313" width="0.776255707762557" height="0.776255707762557" as="geometry" />
        </mxCell>
        <mxCell id="ik0_iE2QhQX5W9CxwBGj-522" value="" style="ellipse;whiteSpace=wrap;html=1;aspect=fixed;fillColor=#000000;strokeColor=none;container=0;" vertex="1" parent="ik0_iE2QhQX5W9CxwBGj-499">
          <mxGeometry y="123.63636363636364" width="0.776255707762557" height="0.776255707762557" as="geometry" />
        </mxCell>
        <mxCell id="ik0_iE2QhQX5W9CxwBGj-523" value="" style="ellipse;whiteSpace=wrap;html=1;aspect=fixed;fillColor=#000000;strokeColor=none;container=0;" vertex="1" parent="ik0_iE2QhQX5W9CxwBGj-499">
          <mxGeometry y="142.5252525252525" width="0.776255707762557" height="0.776255707762557" as="geometry" />
        </mxCell>
        <mxCell id="ik0_iE2QhQX5W9CxwBGj-524" value="" style="ellipse;whiteSpace=wrap;html=1;aspect=fixed;fillColor=#000000;strokeColor=none;container=0;" vertex="1" parent="ik0_iE2QhQX5W9CxwBGj-499">
          <mxGeometry y="147.67676767676764" width="0.776255707762557" height="0.776255707762557" as="geometry" />
        </mxCell>
        <mxCell id="ik0_iE2QhQX5W9CxwBGj-525" value="" style="ellipse;whiteSpace=wrap;html=1;aspect=fixed;fillColor=#000000;strokeColor=none;container=0;" vertex="1" parent="ik0_iE2QhQX5W9CxwBGj-499">
          <mxGeometry y="164.84848484848482" width="0.776255707762557" height="0.776255707762557" as="geometry" />
        </mxCell>
        <mxCell id="ik0_iE2QhQX5W9CxwBGj-526" value="" style="ellipse;whiteSpace=wrap;html=1;aspect=fixed;fillColor=#000000;strokeColor=none;container=0;" vertex="1" parent="ik0_iE2QhQX5W9CxwBGj-499">
          <mxGeometry y="10.303030303030301" width="0.776255707762557" height="0.776255707762557" as="geometry" />
        </mxCell>
        <mxCell id="ik0_iE2QhQX5W9CxwBGj-527" value="" style="ellipse;whiteSpace=wrap;html=1;aspect=fixed;fillColor=#000000;strokeColor=none;container=0;" vertex="1" parent="ik0_iE2QhQX5W9CxwBGj-499">
          <mxGeometry y="18.888888888888886" width="0.776255707762557" height="0.776255707762557" as="geometry" />
        </mxCell>
        <mxCell id="ik0_iE2QhQX5W9CxwBGj-528" value="" style="ellipse;whiteSpace=wrap;html=1;aspect=fixed;fillColor=#000000;strokeColor=none;container=0;" vertex="1" parent="ik0_iE2QhQX5W9CxwBGj-499">
          <mxGeometry y="24.040404040404034" width="0.776255707762557" height="0.776255707762557" as="geometry" />
        </mxCell>
        <mxCell id="ik0_iE2QhQX5W9CxwBGj-529" value="" style="ellipse;whiteSpace=wrap;html=1;aspect=fixed;fillColor=#000000;strokeColor=none;container=0;" vertex="1" parent="ik0_iE2QhQX5W9CxwBGj-499">
          <mxGeometry y="27.47474747474747" width="0.776255707762557" height="0.776255707762557" as="geometry" />
        </mxCell>
        <mxCell id="ik0_iE2QhQX5W9CxwBGj-530" value="" style="ellipse;whiteSpace=wrap;html=1;aspect=fixed;fillColor=#000000;strokeColor=none;container=0;" vertex="1" parent="ik0_iE2QhQX5W9CxwBGj-499">
          <mxGeometry y="32.62626262626262" width="0.776255707762557" height="0.776255707762557" as="geometry" />
        </mxCell>
        <mxCell id="ik0_iE2QhQX5W9CxwBGj-531" value="" style="ellipse;whiteSpace=wrap;html=1;aspect=fixed;fillColor=#000000;strokeColor=none;container=0;" vertex="1" parent="ik0_iE2QhQX5W9CxwBGj-499">
          <mxGeometry y="60.1010101010101" width="0.776255707762557" height="0.776255707762557" as="geometry" />
        </mxCell>
        <mxCell id="ik0_iE2QhQX5W9CxwBGj-532" value="" style="ellipse;whiteSpace=wrap;html=1;aspect=fixed;fillColor=#000000;strokeColor=none;container=0;" vertex="1" parent="ik0_iE2QhQX5W9CxwBGj-499">
          <mxGeometry y="65.25252525252525" width="0.776255707762557" height="0.776255707762557" as="geometry" />
        </mxCell>
        <mxCell id="ik0_iE2QhQX5W9CxwBGj-533" value="" style="ellipse;whiteSpace=wrap;html=1;aspect=fixed;fillColor=#000000;strokeColor=none;container=0;" vertex="1" parent="ik0_iE2QhQX5W9CxwBGj-499">
          <mxGeometry y="68.68686868686868" width="0.776255707762557" height="0.776255707762557" as="geometry" />
        </mxCell>
        <mxCell id="ik0_iE2QhQX5W9CxwBGj-534" value="" style="ellipse;whiteSpace=wrap;html=1;aspect=fixed;fillColor=#000000;strokeColor=none;container=0;" vertex="1" parent="ik0_iE2QhQX5W9CxwBGj-499">
          <mxGeometry y="106.46464646464646" width="0.776255707762557" height="0.776255707762557" as="geometry" />
        </mxCell>
        <mxCell id="ik0_iE2QhQX5W9CxwBGj-535" value="" style="ellipse;whiteSpace=wrap;html=1;aspect=fixed;fillColor=#000000;strokeColor=none;container=0;" vertex="1" parent="ik0_iE2QhQX5W9CxwBGj-499">
          <mxGeometry y="128.78787878787878" width="0.776255707762557" height="0.776255707762557" as="geometry" />
        </mxCell>
        <mxCell id="ik0_iE2QhQX5W9CxwBGj-536" value="" style="ellipse;whiteSpace=wrap;html=1;aspect=fixed;fillColor=#000000;strokeColor=none;container=0;" vertex="1" parent="ik0_iE2QhQX5W9CxwBGj-499">
          <mxGeometry y="133.9393939393939" width="0.776255707762557" height="0.776255707762557" as="geometry" />
        </mxCell>
        <mxCell id="ik0_iE2QhQX5W9CxwBGj-537" value="" style="ellipse;whiteSpace=wrap;html=1;aspect=fixed;fillColor=#000000;strokeColor=none;container=0;" vertex="1" parent="ik0_iE2QhQX5W9CxwBGj-499">
          <mxGeometry y="151.1111111111111" width="0.776255707762557" height="0.776255707762557" as="geometry" />
        </mxCell>
        <mxCell id="ik0_iE2QhQX5W9CxwBGj-538" value="" style="group" vertex="1" connectable="0" parent="1">
          <mxGeometry x="309" y="3" width="1" height="170" as="geometry" />
        </mxCell>
        <mxCell id="ik0_iE2QhQX5W9CxwBGj-539" value="" style="ellipse;whiteSpace=wrap;html=1;aspect=fixed;fillColor=#000000;strokeColor=none;container=0;" vertex="1" parent="ik0_iE2QhQX5W9CxwBGj-538">
          <mxGeometry y="5.1515151515151505" width="0.776255707762557" height="0.776255707762557" as="geometry" />
        </mxCell>
        <mxCell id="ik0_iE2QhQX5W9CxwBGj-540" value="" style="ellipse;whiteSpace=wrap;html=1;aspect=fixed;fillColor=#000000;strokeColor=none;container=0;" vertex="1" parent="ik0_iE2QhQX5W9CxwBGj-538">
          <mxGeometry y="37.77777777777777" width="0.776255707762557" height="0.776255707762557" as="geometry" />
        </mxCell>
        <mxCell id="ik0_iE2QhQX5W9CxwBGj-541" value="" style="ellipse;whiteSpace=wrap;html=1;aspect=fixed;fillColor=#000000;strokeColor=none;container=0;" vertex="1" parent="ik0_iE2QhQX5W9CxwBGj-538">
          <mxGeometry y="73.83838383838382" width="0.776255707762557" height="0.776255707762557" as="geometry" />
        </mxCell>
        <mxCell id="ik0_iE2QhQX5W9CxwBGj-542" value="" style="ellipse;whiteSpace=wrap;html=1;aspect=fixed;fillColor=#000000;strokeColor=none;container=0;" vertex="1" parent="ik0_iE2QhQX5W9CxwBGj-538">
          <mxGeometry y="78.98989898989899" width="0.776255707762557" height="0.776255707762557" as="geometry" />
        </mxCell>
        <mxCell id="ik0_iE2QhQX5W9CxwBGj-543" value="" style="ellipse;whiteSpace=wrap;html=1;aspect=fixed;fillColor=#000000;strokeColor=none;container=0;" vertex="1" parent="ik0_iE2QhQX5W9CxwBGj-538">
          <mxGeometry y="82.42424242424241" width="0.776255707762557" height="0.776255707762557" as="geometry" />
        </mxCell>
        <mxCell id="ik0_iE2QhQX5W9CxwBGj-544" value="" style="ellipse;whiteSpace=wrap;html=1;aspect=fixed;fillColor=#000000;strokeColor=none;container=0;" vertex="1" parent="ik0_iE2QhQX5W9CxwBGj-538">
          <mxGeometry y="87.57575757575758" width="0.776255707762557" height="0.776255707762557" as="geometry" />
        </mxCell>
        <mxCell id="ik0_iE2QhQX5W9CxwBGj-545" value="" style="ellipse;whiteSpace=wrap;html=1;aspect=fixed;fillColor=#000000;strokeColor=none;container=0;" vertex="1" parent="ik0_iE2QhQX5W9CxwBGj-538">
          <mxGeometry y="109.89898989898988" width="0.776255707762557" height="0.776255707762557" as="geometry" />
        </mxCell>
        <mxCell id="ik0_iE2QhQX5W9CxwBGj-546" value="" style="ellipse;whiteSpace=wrap;html=1;aspect=fixed;fillColor=#000000;strokeColor=none;container=0;" vertex="1" parent="ik0_iE2QhQX5W9CxwBGj-538">
          <mxGeometry y="115.05050505050505" width="0.776255707762557" height="0.776255707762557" as="geometry" />
        </mxCell>
        <mxCell id="ik0_iE2QhQX5W9CxwBGj-547" value="" style="ellipse;whiteSpace=wrap;html=1;aspect=fixed;fillColor=#000000;strokeColor=none;container=0;" vertex="1" parent="ik0_iE2QhQX5W9CxwBGj-538">
          <mxGeometry y="120.2020202020202" width="0.776255707762557" height="0.776255707762557" as="geometry" />
        </mxCell>
        <mxCell id="ik0_iE2QhQX5W9CxwBGj-548" value="" style="ellipse;whiteSpace=wrap;html=1;aspect=fixed;fillColor=#000000;strokeColor=none;container=0;" vertex="1" parent="ik0_iE2QhQX5W9CxwBGj-538">
          <mxGeometry y="137.37373737373736" width="0.776255707762557" height="0.776255707762557" as="geometry" />
        </mxCell>
        <mxCell id="ik0_iE2QhQX5W9CxwBGj-549" value="" style="ellipse;whiteSpace=wrap;html=1;aspect=fixed;fillColor=#000000;strokeColor=none;container=0;" vertex="1" parent="ik0_iE2QhQX5W9CxwBGj-538">
          <mxGeometry y="156.26262626262624" width="0.776255707762557" height="0.776255707762557" as="geometry" />
        </mxCell>
        <mxCell id="ik0_iE2QhQX5W9CxwBGj-550" value="" style="ellipse;whiteSpace=wrap;html=1;aspect=fixed;fillColor=#000000;strokeColor=none;container=0;" vertex="1" parent="ik0_iE2QhQX5W9CxwBGj-538">
          <mxGeometry y="161.4141414141414" width="0.776255707762557" height="0.776255707762557" as="geometry" />
        </mxCell>
        <mxCell id="ik0_iE2QhQX5W9CxwBGj-551" value="" style="ellipse;whiteSpace=wrap;html=1;aspect=fixed;fillColor=#000000;strokeColor=none;container=0;" vertex="1" parent="ik0_iE2QhQX5W9CxwBGj-538">
          <mxGeometry y="170" as="geometry" />
        </mxCell>
        <mxCell id="ik0_iE2QhQX5W9CxwBGj-552" value="" style="ellipse;whiteSpace=wrap;html=1;aspect=fixed;fillColor=#000000;strokeColor=none;container=0;" vertex="1" parent="ik0_iE2QhQX5W9CxwBGj-538">
          <mxGeometry width="0.776255707762557" height="0.776255707762557" as="geometry" />
        </mxCell>
        <mxCell id="ik0_iE2QhQX5W9CxwBGj-553" value="" style="ellipse;whiteSpace=wrap;html=1;aspect=fixed;fillColor=#000000;strokeColor=none;container=0;" vertex="1" parent="ik0_iE2QhQX5W9CxwBGj-538">
          <mxGeometry y="13.737373737373735" width="0.776255707762557" height="0.776255707762557" as="geometry" />
        </mxCell>
        <mxCell id="ik0_iE2QhQX5W9CxwBGj-554" value="" style="ellipse;whiteSpace=wrap;html=1;aspect=fixed;fillColor=#000000;strokeColor=none;container=0;" vertex="1" parent="ik0_iE2QhQX5W9CxwBGj-538">
          <mxGeometry y="41.212121212121204" width="0.776255707762557" height="0.776255707762557" as="geometry" />
        </mxCell>
        <mxCell id="ik0_iE2QhQX5W9CxwBGj-555" value="" style="ellipse;whiteSpace=wrap;html=1;aspect=fixed;fillColor=#000000;strokeColor=none;container=0;" vertex="1" parent="ik0_iE2QhQX5W9CxwBGj-538">
          <mxGeometry y="46.36363636363635" width="0.776255707762557" height="0.776255707762557" as="geometry" />
        </mxCell>
        <mxCell id="ik0_iE2QhQX5W9CxwBGj-556" value="" style="ellipse;whiteSpace=wrap;html=1;aspect=fixed;fillColor=#000000;strokeColor=none;container=0;" vertex="1" parent="ik0_iE2QhQX5W9CxwBGj-538">
          <mxGeometry y="51.51515151515151" width="0.776255707762557" height="0.776255707762557" as="geometry" />
        </mxCell>
        <mxCell id="ik0_iE2QhQX5W9CxwBGj-557" value="" style="ellipse;whiteSpace=wrap;html=1;aspect=fixed;fillColor=#000000;strokeColor=none;container=0;" vertex="1" parent="ik0_iE2QhQX5W9CxwBGj-538">
          <mxGeometry y="54.94949494949494" width="0.776255707762557" height="0.776255707762557" as="geometry" />
        </mxCell>
        <mxCell id="ik0_iE2QhQX5W9CxwBGj-558" value="" style="ellipse;whiteSpace=wrap;html=1;aspect=fixed;fillColor=#000000;strokeColor=none;container=0;" vertex="1" parent="ik0_iE2QhQX5W9CxwBGj-538">
          <mxGeometry y="92.7272727272727" width="0.776255707762557" height="0.776255707762557" as="geometry" />
        </mxCell>
        <mxCell id="ik0_iE2QhQX5W9CxwBGj-559" value="" style="ellipse;whiteSpace=wrap;html=1;aspect=fixed;fillColor=#000000;strokeColor=none;container=0;" vertex="1" parent="ik0_iE2QhQX5W9CxwBGj-538">
          <mxGeometry y="96.16161616161614" width="0.776255707762557" height="0.776255707762557" as="geometry" />
        </mxCell>
        <mxCell id="ik0_iE2QhQX5W9CxwBGj-560" value="" style="ellipse;whiteSpace=wrap;html=1;aspect=fixed;fillColor=#000000;strokeColor=none;container=0;" vertex="1" parent="ik0_iE2QhQX5W9CxwBGj-538">
          <mxGeometry y="101.3131313131313" width="0.776255707762557" height="0.776255707762557" as="geometry" />
        </mxCell>
        <mxCell id="ik0_iE2QhQX5W9CxwBGj-561" value="" style="ellipse;whiteSpace=wrap;html=1;aspect=fixed;fillColor=#000000;strokeColor=none;container=0;" vertex="1" parent="ik0_iE2QhQX5W9CxwBGj-538">
          <mxGeometry y="123.63636363636364" width="0.776255707762557" height="0.776255707762557" as="geometry" />
        </mxCell>
        <mxCell id="ik0_iE2QhQX5W9CxwBGj-562" value="" style="ellipse;whiteSpace=wrap;html=1;aspect=fixed;fillColor=#000000;strokeColor=none;container=0;" vertex="1" parent="ik0_iE2QhQX5W9CxwBGj-538">
          <mxGeometry y="142.5252525252525" width="0.776255707762557" height="0.776255707762557" as="geometry" />
        </mxCell>
        <mxCell id="ik0_iE2QhQX5W9CxwBGj-563" value="" style="ellipse;whiteSpace=wrap;html=1;aspect=fixed;fillColor=#000000;strokeColor=none;container=0;" vertex="1" parent="ik0_iE2QhQX5W9CxwBGj-538">
          <mxGeometry y="147.67676767676764" width="0.776255707762557" height="0.776255707762557" as="geometry" />
        </mxCell>
        <mxCell id="ik0_iE2QhQX5W9CxwBGj-564" value="" style="ellipse;whiteSpace=wrap;html=1;aspect=fixed;fillColor=#000000;strokeColor=none;container=0;" vertex="1" parent="ik0_iE2QhQX5W9CxwBGj-538">
          <mxGeometry y="164.84848484848482" width="0.776255707762557" height="0.776255707762557" as="geometry" />
        </mxCell>
        <mxCell id="ik0_iE2QhQX5W9CxwBGj-565" value="" style="ellipse;whiteSpace=wrap;html=1;aspect=fixed;fillColor=#000000;strokeColor=none;container=0;" vertex="1" parent="ik0_iE2QhQX5W9CxwBGj-538">
          <mxGeometry y="10.303030303030301" width="0.776255707762557" height="0.776255707762557" as="geometry" />
        </mxCell>
        <mxCell id="ik0_iE2QhQX5W9CxwBGj-566" value="" style="ellipse;whiteSpace=wrap;html=1;aspect=fixed;fillColor=#000000;strokeColor=none;container=0;" vertex="1" parent="ik0_iE2QhQX5W9CxwBGj-538">
          <mxGeometry y="18.888888888888886" width="0.776255707762557" height="0.776255707762557" as="geometry" />
        </mxCell>
        <mxCell id="ik0_iE2QhQX5W9CxwBGj-567" value="" style="ellipse;whiteSpace=wrap;html=1;aspect=fixed;fillColor=#000000;strokeColor=none;container=0;" vertex="1" parent="ik0_iE2QhQX5W9CxwBGj-538">
          <mxGeometry y="24.040404040404034" width="0.776255707762557" height="0.776255707762557" as="geometry" />
        </mxCell>
        <mxCell id="ik0_iE2QhQX5W9CxwBGj-568" value="" style="ellipse;whiteSpace=wrap;html=1;aspect=fixed;fillColor=#000000;strokeColor=none;container=0;" vertex="1" parent="ik0_iE2QhQX5W9CxwBGj-538">
          <mxGeometry y="27.47474747474747" width="0.776255707762557" height="0.776255707762557" as="geometry" />
        </mxCell>
        <mxCell id="ik0_iE2QhQX5W9CxwBGj-569" value="" style="ellipse;whiteSpace=wrap;html=1;aspect=fixed;fillColor=#000000;strokeColor=none;container=0;" vertex="1" parent="ik0_iE2QhQX5W9CxwBGj-538">
          <mxGeometry y="32.62626262626262" width="0.776255707762557" height="0.776255707762557" as="geometry" />
        </mxCell>
        <mxCell id="ik0_iE2QhQX5W9CxwBGj-570" value="" style="ellipse;whiteSpace=wrap;html=1;aspect=fixed;fillColor=#000000;strokeColor=none;container=0;" vertex="1" parent="ik0_iE2QhQX5W9CxwBGj-538">
          <mxGeometry y="60.1010101010101" width="0.776255707762557" height="0.776255707762557" as="geometry" />
        </mxCell>
        <mxCell id="ik0_iE2QhQX5W9CxwBGj-571" value="" style="ellipse;whiteSpace=wrap;html=1;aspect=fixed;fillColor=#000000;strokeColor=none;container=0;" vertex="1" parent="ik0_iE2QhQX5W9CxwBGj-538">
          <mxGeometry y="65.25252525252525" width="0.776255707762557" height="0.776255707762557" as="geometry" />
        </mxCell>
        <mxCell id="ik0_iE2QhQX5W9CxwBGj-572" value="" style="ellipse;whiteSpace=wrap;html=1;aspect=fixed;fillColor=#000000;strokeColor=none;container=0;" vertex="1" parent="ik0_iE2QhQX5W9CxwBGj-538">
          <mxGeometry y="68.68686868686868" width="0.776255707762557" height="0.776255707762557" as="geometry" />
        </mxCell>
        <mxCell id="ik0_iE2QhQX5W9CxwBGj-573" value="" style="ellipse;whiteSpace=wrap;html=1;aspect=fixed;fillColor=#000000;strokeColor=none;container=0;" vertex="1" parent="ik0_iE2QhQX5W9CxwBGj-538">
          <mxGeometry y="106.46464646464646" width="0.776255707762557" height="0.776255707762557" as="geometry" />
        </mxCell>
        <mxCell id="ik0_iE2QhQX5W9CxwBGj-574" value="" style="ellipse;whiteSpace=wrap;html=1;aspect=fixed;fillColor=#000000;strokeColor=none;container=0;" vertex="1" parent="ik0_iE2QhQX5W9CxwBGj-538">
          <mxGeometry y="128.78787878787878" width="0.776255707762557" height="0.776255707762557" as="geometry" />
        </mxCell>
        <mxCell id="ik0_iE2QhQX5W9CxwBGj-575" value="" style="ellipse;whiteSpace=wrap;html=1;aspect=fixed;fillColor=#000000;strokeColor=none;container=0;" vertex="1" parent="ik0_iE2QhQX5W9CxwBGj-538">
          <mxGeometry y="133.9393939393939" width="0.776255707762557" height="0.776255707762557" as="geometry" />
        </mxCell>
        <mxCell id="ik0_iE2QhQX5W9CxwBGj-576" value="" style="ellipse;whiteSpace=wrap;html=1;aspect=fixed;fillColor=#000000;strokeColor=none;container=0;" vertex="1" parent="ik0_iE2QhQX5W9CxwBGj-538">
          <mxGeometry y="151.1111111111111" width="0.776255707762557" height="0.776255707762557" as="geometry" />
        </mxCell>
      </root>
    </mxGraphModel>
  </diagram>
</mxfile>
